<?xml version="1.0" encoding="utf-8" standalone="no"?>
<!DOCTYPE svg PUBLIC "-//W3C//DTD SVG 1.1//EN"
  "http://www.w3.org/Graphics/SVG/1.1/DTD/svg11.dtd">
<svg xmlns:xlink="http://www.w3.org/1999/xlink" width="857.58625pt" height="493.737687pt" viewBox="0 0 857.58625 493.737687" xmlns="http://www.w3.org/2000/svg" version="1.1">
 <metadata>
  <rdf:RDF xmlns:dc="http://purl.org/dc/elements/1.1/" xmlns:cc="http://creativecommons.org/ns#" xmlns:rdf="http://www.w3.org/1999/02/22-rdf-syntax-ns#">
   <cc:Work>
    <dc:type rdf:resource="http://purl.org/dc/dcmitype/StillImage"/>
    <dc:date>2025-11-04T14:13:42.618629</dc:date>
    <dc:format>image/svg+xml</dc:format>
    <dc:creator>
     <cc:Agent>
      <dc:title>Matplotlib v3.6.3, https://matplotlib.org/</dc:title>
     </cc:Agent>
    </dc:creator>
   </cc:Work>
  </rdf:RDF>
 </metadata>
 <defs>
  <style type="text/css">*{stroke-linejoin: round; stroke-linecap: butt}</style>
 </defs>
 <g id="figure_1">
  <g id="patch_1">
   <path d="M 0 493.737687 
L 857.58625 493.737687 
L 857.58625 0 
L 0 0 
z
" style="fill: #ffffff"/>
  </g>
  <g id="axes_1">
   <g id="patch_2">
    <path d="M 36.17625 454.245812 
L 850.38625 454.245812 
L 850.38625 23.837812 
L 36.17625 23.837812 
z
" style="fill: #ffffff"/>
   </g>
   <g id="matplotlib.axis_1">
    <g id="xtick_1">
     <g id="line2d_1">
      <path d="M 101.2464 454.245812 
L 101.2464 23.837812 
" clip-path="url(#paab04f8e4d)" style="fill: none; stroke: #b0b0b0; stroke-opacity: 0.3; stroke-width: 0.8; stroke-linecap: square"/>
     </g>
     <g id="line2d_2">
      <defs>
       <path id="m4df2d4e38e" d="M 0 0 
L 0 3.5 
" style="stroke: #000000; stroke-width: 0.8"/>
      </defs>
      <g>
       <use xlink:href="#m4df2d4e38e" x="101.2464" y="454.245812" style="stroke: #000000; stroke-width: 0.8"/>
      </g>
     </g>
     <g id="text_1">
      <!-- $\mathdefault{10^{2}}$ -->
      <g transform="translate(92.4464 468.84425) scale(0.1 -0.1)">
       <defs>
        <path id="DejaVuSans-31" d="M 794 531 
L 1825 531 
L 1825 4091 
L 703 3866 
L 703 4441 
L 1819 4666 
L 2450 4666 
L 2450 531 
L 3481 531 
L 3481 0 
L 794 0 
L 794 531 
z
" transform="scale(0.015625)"/>
        <path id="DejaVuSans-30" d="M 2034 4250 
Q 1547 4250 1301 3770 
Q 1056 3291 1056 2328 
Q 1056 1369 1301 889 
Q 1547 409 2034 409 
Q 2525 409 2770 889 
Q 3016 1369 3016 2328 
Q 3016 3291 2770 3770 
Q 2525 4250 2034 4250 
z
M 2034 4750 
Q 2819 4750 3233 4129 
Q 3647 3509 3647 2328 
Q 3647 1150 3233 529 
Q 2819 -91 2034 -91 
Q 1250 -91 836 529 
Q 422 1150 422 2328 
Q 422 3509 836 4129 
Q 1250 4750 2034 4750 
z
" transform="scale(0.015625)"/>
        <path id="DejaVuSans-32" d="M 1228 531 
L 3431 531 
L 3431 0 
L 469 0 
L 469 531 
Q 828 903 1448 1529 
Q 2069 2156 2228 2338 
Q 2531 2678 2651 2914 
Q 2772 3150 2772 3378 
Q 2772 3750 2511 3984 
Q 2250 4219 1831 4219 
Q 1534 4219 1204 4116 
Q 875 4013 500 3803 
L 500 4441 
Q 881 4594 1212 4672 
Q 1544 4750 1819 4750 
Q 2544 4750 2975 4387 
Q 3406 4025 3406 3419 
Q 3406 3131 3298 2873 
Q 3191 2616 2906 2266 
Q 2828 2175 2409 1742 
Q 1991 1309 1228 531 
z
" transform="scale(0.015625)"/>
       </defs>
       <use xlink:href="#DejaVuSans-31" transform="translate(0 0.765625)"/>
       <use xlink:href="#DejaVuSans-30" transform="translate(63.623047 0.765625)"/>
       <use xlink:href="#DejaVuSans-32" transform="translate(128.203125 39.046875) scale(0.7)"/>
      </g>
     </g>
    </g>
    <g id="xtick_2">
     <g id="line2d_3">
      <path d="M 246.023001 454.245812 
L 246.023001 23.837812 
" clip-path="url(#paab04f8e4d)" style="fill: none; stroke: #b0b0b0; stroke-opacity: 0.3; stroke-width: 0.8; stroke-linecap: square"/>
     </g>
     <g id="line2d_4">
      <g>
       <use xlink:href="#m4df2d4e38e" x="246.023001" y="454.245812" style="stroke: #000000; stroke-width: 0.8"/>
      </g>
     </g>
     <g id="text_2">
      <!-- $\mathdefault{10^{3}}$ -->
      <g transform="translate(237.223001 468.84425) scale(0.1 -0.1)">
       <defs>
        <path id="DejaVuSans-33" d="M 2597 2516 
Q 3050 2419 3304 2112 
Q 3559 1806 3559 1356 
Q 3559 666 3084 287 
Q 2609 -91 1734 -91 
Q 1441 -91 1130 -33 
Q 819 25 488 141 
L 488 750 
Q 750 597 1062 519 
Q 1375 441 1716 441 
Q 2309 441 2620 675 
Q 2931 909 2931 1356 
Q 2931 1769 2642 2001 
Q 2353 2234 1838 2234 
L 1294 2234 
L 1294 2753 
L 1863 2753 
Q 2328 2753 2575 2939 
Q 2822 3125 2822 3475 
Q 2822 3834 2567 4026 
Q 2313 4219 1838 4219 
Q 1578 4219 1281 4162 
Q 984 4106 628 3988 
L 628 4550 
Q 988 4650 1302 4700 
Q 1616 4750 1894 4750 
Q 2613 4750 3031 4423 
Q 3450 4097 3450 3541 
Q 3450 3153 3228 2886 
Q 3006 2619 2597 2516 
z
" transform="scale(0.015625)"/>
       </defs>
       <use xlink:href="#DejaVuSans-31" transform="translate(0 0.765625)"/>
       <use xlink:href="#DejaVuSans-30" transform="translate(63.623047 0.765625)"/>
       <use xlink:href="#DejaVuSans-33" transform="translate(128.203125 39.046875) scale(0.7)"/>
      </g>
     </g>
    </g>
    <g id="xtick_3">
     <g id="line2d_5">
      <path d="M 390.799601 454.245812 
L 390.799601 23.837812 
" clip-path="url(#paab04f8e4d)" style="fill: none; stroke: #b0b0b0; stroke-opacity: 0.3; stroke-width: 0.8; stroke-linecap: square"/>
     </g>
     <g id="line2d_6">
      <g>
       <use xlink:href="#m4df2d4e38e" x="390.799601" y="454.245812" style="stroke: #000000; stroke-width: 0.8"/>
      </g>
     </g>
     <g id="text_3">
      <!-- $\mathdefault{10^{4}}$ -->
      <g transform="translate(381.999601 468.84425) scale(0.1 -0.1)">
       <defs>
        <path id="DejaVuSans-34" d="M 2419 4116 
L 825 1625 
L 2419 1625 
L 2419 4116 
z
M 2253 4666 
L 3047 4666 
L 3047 1625 
L 3713 1625 
L 3713 1100 
L 3047 1100 
L 3047 0 
L 2419 0 
L 2419 1100 
L 313 1100 
L 313 1709 
L 2253 4666 
z
" transform="scale(0.015625)"/>
       </defs>
       <use xlink:href="#DejaVuSans-31" transform="translate(0 0.684375)"/>
       <use xlink:href="#DejaVuSans-30" transform="translate(63.623047 0.684375)"/>
       <use xlink:href="#DejaVuSans-34" transform="translate(128.203125 38.965625) scale(0.7)"/>
      </g>
     </g>
    </g>
    <g id="xtick_4">
     <g id="line2d_7">
      <path d="M 535.576202 454.245812 
L 535.576202 23.837812 
" clip-path="url(#paab04f8e4d)" style="fill: none; stroke: #b0b0b0; stroke-opacity: 0.3; stroke-width: 0.8; stroke-linecap: square"/>
     </g>
     <g id="line2d_8">
      <g>
       <use xlink:href="#m4df2d4e38e" x="535.576202" y="454.245812" style="stroke: #000000; stroke-width: 0.8"/>
      </g>
     </g>
     <g id="text_4">
      <!-- $\mathdefault{10^{5}}$ -->
      <g transform="translate(526.776202 468.84425) scale(0.1 -0.1)">
       <defs>
        <path id="DejaVuSans-35" d="M 691 4666 
L 3169 4666 
L 3169 4134 
L 1269 4134 
L 1269 2991 
Q 1406 3038 1543 3061 
Q 1681 3084 1819 3084 
Q 2600 3084 3056 2656 
Q 3513 2228 3513 1497 
Q 3513 744 3044 326 
Q 2575 -91 1722 -91 
Q 1428 -91 1123 -41 
Q 819 9 494 109 
L 494 744 
Q 775 591 1075 516 
Q 1375 441 1709 441 
Q 2250 441 2565 725 
Q 2881 1009 2881 1497 
Q 2881 1984 2565 2268 
Q 2250 2553 1709 2553 
Q 1456 2553 1204 2497 
Q 953 2441 691 2322 
L 691 4666 
z
" transform="scale(0.015625)"/>
       </defs>
       <use xlink:href="#DejaVuSans-31" transform="translate(0 0.684375)"/>
       <use xlink:href="#DejaVuSans-30" transform="translate(63.623047 0.684375)"/>
       <use xlink:href="#DejaVuSans-35" transform="translate(128.203125 38.965625) scale(0.7)"/>
      </g>
     </g>
    </g>
    <g id="xtick_5">
     <g id="line2d_9">
      <path d="M 680.352803 454.245812 
L 680.352803 23.837812 
" clip-path="url(#paab04f8e4d)" style="fill: none; stroke: #b0b0b0; stroke-opacity: 0.3; stroke-width: 0.8; stroke-linecap: square"/>
     </g>
     <g id="line2d_10">
      <g>
       <use xlink:href="#m4df2d4e38e" x="680.352803" y="454.245812" style="stroke: #000000; stroke-width: 0.8"/>
      </g>
     </g>
     <g id="text_5">
      <!-- $\mathdefault{10^{6}}$ -->
      <g transform="translate(671.552803 468.84425) scale(0.1 -0.1)">
       <defs>
        <path id="DejaVuSans-36" d="M 2113 2584 
Q 1688 2584 1439 2293 
Q 1191 2003 1191 1497 
Q 1191 994 1439 701 
Q 1688 409 2113 409 
Q 2538 409 2786 701 
Q 3034 994 3034 1497 
Q 3034 2003 2786 2293 
Q 2538 2584 2113 2584 
z
M 3366 4563 
L 3366 3988 
Q 3128 4100 2886 4159 
Q 2644 4219 2406 4219 
Q 1781 4219 1451 3797 
Q 1122 3375 1075 2522 
Q 1259 2794 1537 2939 
Q 1816 3084 2150 3084 
Q 2853 3084 3261 2657 
Q 3669 2231 3669 1497 
Q 3669 778 3244 343 
Q 2819 -91 2113 -91 
Q 1303 -91 875 529 
Q 447 1150 447 2328 
Q 447 3434 972 4092 
Q 1497 4750 2381 4750 
Q 2619 4750 2861 4703 
Q 3103 4656 3366 4563 
z
" transform="scale(0.015625)"/>
       </defs>
       <use xlink:href="#DejaVuSans-31" transform="translate(0 0.765625)"/>
       <use xlink:href="#DejaVuSans-30" transform="translate(63.623047 0.765625)"/>
       <use xlink:href="#DejaVuSans-36" transform="translate(128.203125 39.046875) scale(0.7)"/>
      </g>
     </g>
    </g>
    <g id="xtick_6">
     <g id="line2d_11">
      <path d="M 825.129403 454.245812 
L 825.129403 23.837812 
" clip-path="url(#paab04f8e4d)" style="fill: none; stroke: #b0b0b0; stroke-opacity: 0.3; stroke-width: 0.8; stroke-linecap: square"/>
     </g>
     <g id="line2d_12">
      <g>
       <use xlink:href="#m4df2d4e38e" x="825.129403" y="454.245812" style="stroke: #000000; stroke-width: 0.8"/>
      </g>
     </g>
     <g id="text_6">
      <!-- $\mathdefault{10^{7}}$ -->
      <g transform="translate(816.329403 468.84425) scale(0.1 -0.1)">
       <defs>
        <path id="DejaVuSans-37" d="M 525 4666 
L 3525 4666 
L 3525 4397 
L 1831 0 
L 1172 0 
L 2766 4134 
L 525 4134 
L 525 4666 
z
" transform="scale(0.015625)"/>
       </defs>
       <use xlink:href="#DejaVuSans-31" transform="translate(0 0.684375)"/>
       <use xlink:href="#DejaVuSans-30" transform="translate(63.623047 0.684375)"/>
       <use xlink:href="#DejaVuSans-37" transform="translate(128.203125 38.965625) scale(0.7)"/>
      </g>
     </g>
    </g>
    <g id="xtick_7">
     <g id="line2d_13">
      <defs>
       <path id="m897098dd19" d="M 0 0 
L 0 2 
" style="stroke: #000000; stroke-width: 0.6"/>
      </defs>
      <g>
       <use xlink:href="#m897098dd19" x="43.633998" y="454.245812" style="stroke: #000000; stroke-width: 0.6"/>
      </g>
     </g>
    </g>
    <g id="xtick_8">
     <g id="line2d_14">
      <g>
       <use xlink:href="#m897098dd19" x="57.6643" y="454.245812" style="stroke: #000000; stroke-width: 0.6"/>
      </g>
     </g>
    </g>
    <g id="xtick_9">
     <g id="line2d_15">
      <g>
       <use xlink:href="#m897098dd19" x="69.127892" y="454.245812" style="stroke: #000000; stroke-width: 0.6"/>
      </g>
     </g>
    </g>
    <g id="xtick_10">
     <g id="line2d_16">
      <g>
       <use xlink:href="#m897098dd19" x="78.820221" y="454.245812" style="stroke: #000000; stroke-width: 0.6"/>
      </g>
     </g>
    </g>
    <g id="xtick_11">
     <g id="line2d_17">
      <g>
       <use xlink:href="#m897098dd19" x="87.216098" y="454.245812" style="stroke: #000000; stroke-width: 0.6"/>
      </g>
     </g>
    </g>
    <g id="xtick_12">
     <g id="line2d_18">
      <g>
       <use xlink:href="#m897098dd19" x="94.621786" y="454.245812" style="stroke: #000000; stroke-width: 0.6"/>
      </g>
     </g>
    </g>
    <g id="xtick_13">
     <g id="line2d_19">
      <g>
       <use xlink:href="#m897098dd19" x="144.828499" y="454.245812" style="stroke: #000000; stroke-width: 0.6"/>
      </g>
     </g>
    </g>
    <g id="xtick_14">
     <g id="line2d_20">
      <g>
       <use xlink:href="#m897098dd19" x="170.322393" y="454.245812" style="stroke: #000000; stroke-width: 0.6"/>
      </g>
     </g>
    </g>
    <g id="xtick_15">
     <g id="line2d_21">
      <g>
       <use xlink:href="#m897098dd19" x="188.410599" y="454.245812" style="stroke: #000000; stroke-width: 0.6"/>
      </g>
     </g>
    </g>
    <g id="xtick_16">
     <g id="line2d_22">
      <g>
       <use xlink:href="#m897098dd19" x="202.440901" y="454.245812" style="stroke: #000000; stroke-width: 0.6"/>
      </g>
     </g>
    </g>
    <g id="xtick_17">
     <g id="line2d_23">
      <g>
       <use xlink:href="#m897098dd19" x="213.904493" y="454.245812" style="stroke: #000000; stroke-width: 0.6"/>
      </g>
     </g>
    </g>
    <g id="xtick_18">
     <g id="line2d_24">
      <g>
       <use xlink:href="#m897098dd19" x="223.596821" y="454.245812" style="stroke: #000000; stroke-width: 0.6"/>
      </g>
     </g>
    </g>
    <g id="xtick_19">
     <g id="line2d_25">
      <g>
       <use xlink:href="#m897098dd19" x="231.992698" y="454.245812" style="stroke: #000000; stroke-width: 0.6"/>
      </g>
     </g>
    </g>
    <g id="xtick_20">
     <g id="line2d_26">
      <g>
       <use xlink:href="#m897098dd19" x="239.398387" y="454.245812" style="stroke: #000000; stroke-width: 0.6"/>
      </g>
     </g>
    </g>
    <g id="xtick_21">
     <g id="line2d_27">
      <g>
       <use xlink:href="#m897098dd19" x="289.6051" y="454.245812" style="stroke: #000000; stroke-width: 0.6"/>
      </g>
     </g>
    </g>
    <g id="xtick_22">
     <g id="line2d_28">
      <g>
       <use xlink:href="#m897098dd19" x="315.098994" y="454.245812" style="stroke: #000000; stroke-width: 0.6"/>
      </g>
     </g>
    </g>
    <g id="xtick_23">
     <g id="line2d_29">
      <g>
       <use xlink:href="#m897098dd19" x="333.1872" y="454.245812" style="stroke: #000000; stroke-width: 0.6"/>
      </g>
     </g>
    </g>
    <g id="xtick_24">
     <g id="line2d_30">
      <g>
       <use xlink:href="#m897098dd19" x="347.217502" y="454.245812" style="stroke: #000000; stroke-width: 0.6"/>
      </g>
     </g>
    </g>
    <g id="xtick_25">
     <g id="line2d_31">
      <g>
       <use xlink:href="#m897098dd19" x="358.681093" y="454.245812" style="stroke: #000000; stroke-width: 0.6"/>
      </g>
     </g>
    </g>
    <g id="xtick_26">
     <g id="line2d_32">
      <g>
       <use xlink:href="#m897098dd19" x="368.373422" y="454.245812" style="stroke: #000000; stroke-width: 0.6"/>
      </g>
     </g>
    </g>
    <g id="xtick_27">
     <g id="line2d_33">
      <g>
       <use xlink:href="#m897098dd19" x="376.769299" y="454.245812" style="stroke: #000000; stroke-width: 0.6"/>
      </g>
     </g>
    </g>
    <g id="xtick_28">
     <g id="line2d_34">
      <g>
       <use xlink:href="#m897098dd19" x="384.174987" y="454.245812" style="stroke: #000000; stroke-width: 0.6"/>
      </g>
     </g>
    </g>
    <g id="xtick_29">
     <g id="line2d_35">
      <g>
       <use xlink:href="#m897098dd19" x="434.381701" y="454.245812" style="stroke: #000000; stroke-width: 0.6"/>
      </g>
     </g>
    </g>
    <g id="xtick_30">
     <g id="line2d_36">
      <g>
       <use xlink:href="#m897098dd19" x="459.875595" y="454.245812" style="stroke: #000000; stroke-width: 0.6"/>
      </g>
     </g>
    </g>
    <g id="xtick_31">
     <g id="line2d_37">
      <g>
       <use xlink:href="#m897098dd19" x="477.9638" y="454.245812" style="stroke: #000000; stroke-width: 0.6"/>
      </g>
     </g>
    </g>
    <g id="xtick_32">
     <g id="line2d_38">
      <g>
       <use xlink:href="#m897098dd19" x="491.994102" y="454.245812" style="stroke: #000000; stroke-width: 0.6"/>
      </g>
     </g>
    </g>
    <g id="xtick_33">
     <g id="line2d_39">
      <g>
       <use xlink:href="#m897098dd19" x="503.457694" y="454.245812" style="stroke: #000000; stroke-width: 0.6"/>
      </g>
     </g>
    </g>
    <g id="xtick_34">
     <g id="line2d_40">
      <g>
       <use xlink:href="#m897098dd19" x="513.150023" y="454.245812" style="stroke: #000000; stroke-width: 0.6"/>
      </g>
     </g>
    </g>
    <g id="xtick_35">
     <g id="line2d_41">
      <g>
       <use xlink:href="#m897098dd19" x="521.5459" y="454.245812" style="stroke: #000000; stroke-width: 0.6"/>
      </g>
     </g>
    </g>
    <g id="xtick_36">
     <g id="line2d_42">
      <g>
       <use xlink:href="#m897098dd19" x="528.951588" y="454.245812" style="stroke: #000000; stroke-width: 0.6"/>
      </g>
     </g>
    </g>
    <g id="xtick_37">
     <g id="line2d_43">
      <g>
       <use xlink:href="#m897098dd19" x="579.158301" y="454.245812" style="stroke: #000000; stroke-width: 0.6"/>
      </g>
     </g>
    </g>
    <g id="xtick_38">
     <g id="line2d_44">
      <g>
       <use xlink:href="#m897098dd19" x="604.652195" y="454.245812" style="stroke: #000000; stroke-width: 0.6"/>
      </g>
     </g>
    </g>
    <g id="xtick_39">
     <g id="line2d_45">
      <g>
       <use xlink:href="#m897098dd19" x="622.740401" y="454.245812" style="stroke: #000000; stroke-width: 0.6"/>
      </g>
     </g>
    </g>
    <g id="xtick_40">
     <g id="line2d_46">
      <g>
       <use xlink:href="#m897098dd19" x="636.770703" y="454.245812" style="stroke: #000000; stroke-width: 0.6"/>
      </g>
     </g>
    </g>
    <g id="xtick_41">
     <g id="line2d_47">
      <g>
       <use xlink:href="#m897098dd19" x="648.234295" y="454.245812" style="stroke: #000000; stroke-width: 0.6"/>
      </g>
     </g>
    </g>
    <g id="xtick_42">
     <g id="line2d_48">
      <g>
       <use xlink:href="#m897098dd19" x="657.926623" y="454.245812" style="stroke: #000000; stroke-width: 0.6"/>
      </g>
     </g>
    </g>
    <g id="xtick_43">
     <g id="line2d_49">
      <g>
       <use xlink:href="#m897098dd19" x="666.3225" y="454.245812" style="stroke: #000000; stroke-width: 0.6"/>
      </g>
     </g>
    </g>
    <g id="xtick_44">
     <g id="line2d_50">
      <g>
       <use xlink:href="#m897098dd19" x="673.728189" y="454.245812" style="stroke: #000000; stroke-width: 0.6"/>
      </g>
     </g>
    </g>
    <g id="xtick_45">
     <g id="line2d_51">
      <g>
       <use xlink:href="#m897098dd19" x="723.934902" y="454.245812" style="stroke: #000000; stroke-width: 0.6"/>
      </g>
     </g>
    </g>
    <g id="xtick_46">
     <g id="line2d_52">
      <g>
       <use xlink:href="#m897098dd19" x="749.428796" y="454.245812" style="stroke: #000000; stroke-width: 0.6"/>
      </g>
     </g>
    </g>
    <g id="xtick_47">
     <g id="line2d_53">
      <g>
       <use xlink:href="#m897098dd19" x="767.517002" y="454.245812" style="stroke: #000000; stroke-width: 0.6"/>
      </g>
     </g>
    </g>
    <g id="xtick_48">
     <g id="line2d_54">
      <g>
       <use xlink:href="#m897098dd19" x="781.547304" y="454.245812" style="stroke: #000000; stroke-width: 0.6"/>
      </g>
     </g>
    </g>
    <g id="xtick_49">
     <g id="line2d_55">
      <g>
       <use xlink:href="#m897098dd19" x="793.010895" y="454.245812" style="stroke: #000000; stroke-width: 0.6"/>
      </g>
     </g>
    </g>
    <g id="xtick_50">
     <g id="line2d_56">
      <g>
       <use xlink:href="#m897098dd19" x="802.703224" y="454.245812" style="stroke: #000000; stroke-width: 0.6"/>
      </g>
     </g>
    </g>
    <g id="xtick_51">
     <g id="line2d_57">
      <g>
       <use xlink:href="#m897098dd19" x="811.099101" y="454.245812" style="stroke: #000000; stroke-width: 0.6"/>
      </g>
     </g>
    </g>
    <g id="xtick_52">
     <g id="line2d_58">
      <g>
       <use xlink:href="#m897098dd19" x="818.504789" y="454.245812" style="stroke: #000000; stroke-width: 0.6"/>
      </g>
     </g>
    </g>
    <g id="text_7">
     <!-- Cache Size (bytes) -->
     <g transform="translate(387.27875 484.042062) scale(0.12 -0.12)">
      <defs>
       <path id="DejaVuSans-43" d="M 4122 4306 
L 4122 3641 
Q 3803 3938 3442 4084 
Q 3081 4231 2675 4231 
Q 1875 4231 1450 3742 
Q 1025 3253 1025 2328 
Q 1025 1406 1450 917 
Q 1875 428 2675 428 
Q 3081 428 3442 575 
Q 3803 722 4122 1019 
L 4122 359 
Q 3791 134 3420 21 
Q 3050 -91 2638 -91 
Q 1578 -91 968 557 
Q 359 1206 359 2328 
Q 359 3453 968 4101 
Q 1578 4750 2638 4750 
Q 3056 4750 3426 4639 
Q 3797 4528 4122 4306 
z
" transform="scale(0.015625)"/>
       <path id="DejaVuSans-61" d="M 2194 1759 
Q 1497 1759 1228 1600 
Q 959 1441 959 1056 
Q 959 750 1161 570 
Q 1363 391 1709 391 
Q 2188 391 2477 730 
Q 2766 1069 2766 1631 
L 2766 1759 
L 2194 1759 
z
M 3341 1997 
L 3341 0 
L 2766 0 
L 2766 531 
Q 2569 213 2275 61 
Q 1981 -91 1556 -91 
Q 1019 -91 701 211 
Q 384 513 384 1019 
Q 384 1609 779 1909 
Q 1175 2209 1959 2209 
L 2766 2209 
L 2766 2266 
Q 2766 2663 2505 2880 
Q 2244 3097 1772 3097 
Q 1472 3097 1187 3025 
Q 903 2953 641 2809 
L 641 3341 
Q 956 3463 1253 3523 
Q 1550 3584 1831 3584 
Q 2591 3584 2966 3190 
Q 3341 2797 3341 1997 
z
" transform="scale(0.015625)"/>
       <path id="DejaVuSans-63" d="M 3122 3366 
L 3122 2828 
Q 2878 2963 2633 3030 
Q 2388 3097 2138 3097 
Q 1578 3097 1268 2742 
Q 959 2388 959 1747 
Q 959 1106 1268 751 
Q 1578 397 2138 397 
Q 2388 397 2633 464 
Q 2878 531 3122 666 
L 3122 134 
Q 2881 22 2623 -34 
Q 2366 -91 2075 -91 
Q 1284 -91 818 406 
Q 353 903 353 1747 
Q 353 2603 823 3093 
Q 1294 3584 2113 3584 
Q 2378 3584 2631 3529 
Q 2884 3475 3122 3366 
z
" transform="scale(0.015625)"/>
       <path id="DejaVuSans-68" d="M 3513 2113 
L 3513 0 
L 2938 0 
L 2938 2094 
Q 2938 2591 2744 2837 
Q 2550 3084 2163 3084 
Q 1697 3084 1428 2787 
Q 1159 2491 1159 1978 
L 1159 0 
L 581 0 
L 581 4863 
L 1159 4863 
L 1159 2956 
Q 1366 3272 1645 3428 
Q 1925 3584 2291 3584 
Q 2894 3584 3203 3211 
Q 3513 2838 3513 2113 
z
" transform="scale(0.015625)"/>
       <path id="DejaVuSans-65" d="M 3597 1894 
L 3597 1613 
L 953 1613 
Q 991 1019 1311 708 
Q 1631 397 2203 397 
Q 2534 397 2845 478 
Q 3156 559 3463 722 
L 3463 178 
Q 3153 47 2828 -22 
Q 2503 -91 2169 -91 
Q 1331 -91 842 396 
Q 353 884 353 1716 
Q 353 2575 817 3079 
Q 1281 3584 2069 3584 
Q 2775 3584 3186 3129 
Q 3597 2675 3597 1894 
z
M 3022 2063 
Q 3016 2534 2758 2815 
Q 2500 3097 2075 3097 
Q 1594 3097 1305 2825 
Q 1016 2553 972 2059 
L 3022 2063 
z
" transform="scale(0.015625)"/>
       <path id="DejaVuSans-20" transform="scale(0.015625)"/>
       <path id="DejaVuSans-53" d="M 3425 4513 
L 3425 3897 
Q 3066 4069 2747 4153 
Q 2428 4238 2131 4238 
Q 1616 4238 1336 4038 
Q 1056 3838 1056 3469 
Q 1056 3159 1242 3001 
Q 1428 2844 1947 2747 
L 2328 2669 
Q 3034 2534 3370 2195 
Q 3706 1856 3706 1288 
Q 3706 609 3251 259 
Q 2797 -91 1919 -91 
Q 1588 -91 1214 -16 
Q 841 59 441 206 
L 441 856 
Q 825 641 1194 531 
Q 1563 422 1919 422 
Q 2459 422 2753 634 
Q 3047 847 3047 1241 
Q 3047 1584 2836 1778 
Q 2625 1972 2144 2069 
L 1759 2144 
Q 1053 2284 737 2584 
Q 422 2884 422 3419 
Q 422 4038 858 4394 
Q 1294 4750 2059 4750 
Q 2388 4750 2728 4690 
Q 3069 4631 3425 4513 
z
" transform="scale(0.015625)"/>
       <path id="DejaVuSans-69" d="M 603 3500 
L 1178 3500 
L 1178 0 
L 603 0 
L 603 3500 
z
M 603 4863 
L 1178 4863 
L 1178 4134 
L 603 4134 
L 603 4863 
z
" transform="scale(0.015625)"/>
       <path id="DejaVuSans-7a" d="M 353 3500 
L 3084 3500 
L 3084 2975 
L 922 459 
L 3084 459 
L 3084 0 
L 275 0 
L 275 525 
L 2438 3041 
L 353 3041 
L 353 3500 
z
" transform="scale(0.015625)"/>
       <path id="DejaVuSans-28" d="M 1984 4856 
Q 1566 4138 1362 3434 
Q 1159 2731 1159 2009 
Q 1159 1288 1364 580 
Q 1569 -128 1984 -844 
L 1484 -844 
Q 1016 -109 783 600 
Q 550 1309 550 2009 
Q 550 2706 781 3412 
Q 1013 4119 1484 4856 
L 1984 4856 
z
" transform="scale(0.015625)"/>
       <path id="DejaVuSans-62" d="M 3116 1747 
Q 3116 2381 2855 2742 
Q 2594 3103 2138 3103 
Q 1681 3103 1420 2742 
Q 1159 2381 1159 1747 
Q 1159 1113 1420 752 
Q 1681 391 2138 391 
Q 2594 391 2855 752 
Q 3116 1113 3116 1747 
z
M 1159 2969 
Q 1341 3281 1617 3432 
Q 1894 3584 2278 3584 
Q 2916 3584 3314 3078 
Q 3713 2572 3713 1747 
Q 3713 922 3314 415 
Q 2916 -91 2278 -91 
Q 1894 -91 1617 61 
Q 1341 213 1159 525 
L 1159 0 
L 581 0 
L 581 4863 
L 1159 4863 
L 1159 2969 
z
" transform="scale(0.015625)"/>
       <path id="DejaVuSans-79" d="M 2059 -325 
Q 1816 -950 1584 -1140 
Q 1353 -1331 966 -1331 
L 506 -1331 
L 506 -850 
L 844 -850 
Q 1081 -850 1212 -737 
Q 1344 -625 1503 -206 
L 1606 56 
L 191 3500 
L 800 3500 
L 1894 763 
L 2988 3500 
L 3597 3500 
L 2059 -325 
z
" transform="scale(0.015625)"/>
       <path id="DejaVuSans-74" d="M 1172 4494 
L 1172 3500 
L 2356 3500 
L 2356 3053 
L 1172 3053 
L 1172 1153 
Q 1172 725 1289 603 
Q 1406 481 1766 481 
L 2356 481 
L 2356 0 
L 1766 0 
Q 1100 0 847 248 
Q 594 497 594 1153 
L 594 3053 
L 172 3053 
L 172 3500 
L 594 3500 
L 594 4494 
L 1172 4494 
z
" transform="scale(0.015625)"/>
       <path id="DejaVuSans-73" d="M 2834 3397 
L 2834 2853 
Q 2591 2978 2328 3040 
Q 2066 3103 1784 3103 
Q 1356 3103 1142 2972 
Q 928 2841 928 2578 
Q 928 2378 1081 2264 
Q 1234 2150 1697 2047 
L 1894 2003 
Q 2506 1872 2764 1633 
Q 3022 1394 3022 966 
Q 3022 478 2636 193 
Q 2250 -91 1575 -91 
Q 1294 -91 989 -36 
Q 684 19 347 128 
L 347 722 
Q 666 556 975 473 
Q 1284 391 1588 391 
Q 1994 391 2212 530 
Q 2431 669 2431 922 
Q 2431 1156 2273 1281 
Q 2116 1406 1581 1522 
L 1381 1569 
Q 847 1681 609 1914 
Q 372 2147 372 2553 
Q 372 3047 722 3315 
Q 1072 3584 1716 3584 
Q 2034 3584 2315 3537 
Q 2597 3491 2834 3397 
z
" transform="scale(0.015625)"/>
       <path id="DejaVuSans-29" d="M 513 4856 
L 1013 4856 
Q 1481 4119 1714 3412 
Q 1947 2706 1947 2009 
Q 1947 1309 1714 600 
Q 1481 -109 1013 -844 
L 513 -844 
Q 928 -128 1133 580 
Q 1338 1288 1338 2009 
Q 1338 2731 1133 3434 
Q 928 4138 513 4856 
z
" transform="scale(0.015625)"/>
      </defs>
      <use xlink:href="#DejaVuSans-43"/>
      <use xlink:href="#DejaVuSans-61" x="69.824219"/>
      <use xlink:href="#DejaVuSans-63" x="131.103516"/>
      <use xlink:href="#DejaVuSans-68" x="186.083984"/>
      <use xlink:href="#DejaVuSans-65" x="249.462891"/>
      <use xlink:href="#DejaVuSans-20" x="310.986328"/>
      <use xlink:href="#DejaVuSans-53" x="342.773438"/>
      <use xlink:href="#DejaVuSans-69" x="406.25"/>
      <use xlink:href="#DejaVuSans-7a" x="434.033203"/>
      <use xlink:href="#DejaVuSans-65" x="486.523438"/>
      <use xlink:href="#DejaVuSans-20" x="548.046875"/>
      <use xlink:href="#DejaVuSans-28" x="579.833984"/>
      <use xlink:href="#DejaVuSans-62" x="618.847656"/>
      <use xlink:href="#DejaVuSans-79" x="682.324219"/>
      <use xlink:href="#DejaVuSans-74" x="741.503906"/>
      <use xlink:href="#DejaVuSans-65" x="780.712891"/>
      <use xlink:href="#DejaVuSans-73" x="842.236328"/>
      <use xlink:href="#DejaVuSans-29" x="894.335938"/>
     </g>
    </g>
   </g>
   <g id="matplotlib.axis_2">
    <g id="ytick_1">
     <g id="line2d_59">
      <path d="M 36.17625 434.681812 
L 850.38625 434.681812 
" clip-path="url(#paab04f8e4d)" style="fill: none; stroke: #b0b0b0; stroke-opacity: 0.3; stroke-width: 0.8; stroke-linecap: square"/>
     </g>
     <g id="line2d_60">
      <defs>
       <path id="mc3a6cc8fc6" d="M 0 0 
L -3.5 0 
" style="stroke: #000000; stroke-width: 0.8"/>
      </defs>
      <g>
       <use xlink:href="#mc3a6cc8fc6" x="36.17625" y="434.681812" style="stroke: #000000; stroke-width: 0.8"/>
      </g>
     </g>
     <g id="text_8">
      <!-- 0 -->
      <g transform="translate(22.81375 438.481031) scale(0.1 -0.1)">
       <use xlink:href="#DejaVuSans-30"/>
      </g>
     </g>
    </g>
    <g id="ytick_2">
     <g id="line2d_61">
      <path d="M 36.17625 359.827206 
L 850.38625 359.827206 
" clip-path="url(#paab04f8e4d)" style="fill: none; stroke: #b0b0b0; stroke-opacity: 0.3; stroke-width: 0.8; stroke-linecap: square"/>
     </g>
     <g id="line2d_62">
      <g>
       <use xlink:href="#mc3a6cc8fc6" x="36.17625" y="359.827206" style="stroke: #000000; stroke-width: 0.8"/>
      </g>
     </g>
     <g id="text_9">
      <!-- 1 -->
      <g transform="translate(22.81375 363.626425) scale(0.1 -0.1)">
       <use xlink:href="#DejaVuSans-31"/>
      </g>
     </g>
    </g>
    <g id="ytick_3">
     <g id="line2d_63">
      <path d="M 36.17625 284.972599 
L 850.38625 284.972599 
" clip-path="url(#paab04f8e4d)" style="fill: none; stroke: #b0b0b0; stroke-opacity: 0.3; stroke-width: 0.8; stroke-linecap: square"/>
     </g>
     <g id="line2d_64">
      <g>
       <use xlink:href="#mc3a6cc8fc6" x="36.17625" y="284.972599" style="stroke: #000000; stroke-width: 0.8"/>
      </g>
     </g>
     <g id="text_10">
      <!-- 2 -->
      <g transform="translate(22.81375 288.771818) scale(0.1 -0.1)">
       <use xlink:href="#DejaVuSans-32"/>
      </g>
     </g>
    </g>
    <g id="ytick_4">
     <g id="line2d_65">
      <path d="M 36.17625 210.117992 
L 850.38625 210.117992 
" clip-path="url(#paab04f8e4d)" style="fill: none; stroke: #b0b0b0; stroke-opacity: 0.3; stroke-width: 0.8; stroke-linecap: square"/>
     </g>
     <g id="line2d_66">
      <g>
       <use xlink:href="#mc3a6cc8fc6" x="36.17625" y="210.117992" style="stroke: #000000; stroke-width: 0.8"/>
      </g>
     </g>
     <g id="text_11">
      <!-- 3 -->
      <g transform="translate(22.81375 213.917211) scale(0.1 -0.1)">
       <use xlink:href="#DejaVuSans-33"/>
      </g>
     </g>
    </g>
    <g id="ytick_5">
     <g id="line2d_67">
      <path d="M 36.17625 135.263386 
L 850.38625 135.263386 
" clip-path="url(#paab04f8e4d)" style="fill: none; stroke: #b0b0b0; stroke-opacity: 0.3; stroke-width: 0.8; stroke-linecap: square"/>
     </g>
     <g id="line2d_68">
      <g>
       <use xlink:href="#mc3a6cc8fc6" x="36.17625" y="135.263386" style="stroke: #000000; stroke-width: 0.8"/>
      </g>
     </g>
     <g id="text_12">
      <!-- 4 -->
      <g transform="translate(22.81375 139.062605) scale(0.1 -0.1)">
       <use xlink:href="#DejaVuSans-34"/>
      </g>
     </g>
    </g>
    <g id="ytick_6">
     <g id="line2d_69">
      <path d="M 36.17625 60.408779 
L 850.38625 60.408779 
" clip-path="url(#paab04f8e4d)" style="fill: none; stroke: #b0b0b0; stroke-opacity: 0.3; stroke-width: 0.8; stroke-linecap: square"/>
     </g>
     <g id="line2d_70">
      <g>
       <use xlink:href="#mc3a6cc8fc6" x="36.17625" y="60.408779" style="stroke: #000000; stroke-width: 0.8"/>
      </g>
     </g>
     <g id="text_13">
      <!-- 5 -->
      <g transform="translate(22.81375 64.207998) scale(0.1 -0.1)">
       <use xlink:href="#DejaVuSans-35"/>
      </g>
     </g>
    </g>
    <g id="text_14">
     <!-- Miss Count -->
     <g transform="translate(16.318125 271.861812) rotate(-90) scale(0.12 -0.12)">
      <defs>
       <path id="DejaVuSans-4d" d="M 628 4666 
L 1569 4666 
L 2759 1491 
L 3956 4666 
L 4897 4666 
L 4897 0 
L 4281 0 
L 4281 4097 
L 3078 897 
L 2444 897 
L 1241 4097 
L 1241 0 
L 628 0 
L 628 4666 
z
" transform="scale(0.015625)"/>
       <path id="DejaVuSans-6f" d="M 1959 3097 
Q 1497 3097 1228 2736 
Q 959 2375 959 1747 
Q 959 1119 1226 758 
Q 1494 397 1959 397 
Q 2419 397 2687 759 
Q 2956 1122 2956 1747 
Q 2956 2369 2687 2733 
Q 2419 3097 1959 3097 
z
M 1959 3584 
Q 2709 3584 3137 3096 
Q 3566 2609 3566 1747 
Q 3566 888 3137 398 
Q 2709 -91 1959 -91 
Q 1206 -91 779 398 
Q 353 888 353 1747 
Q 353 2609 779 3096 
Q 1206 3584 1959 3584 
z
" transform="scale(0.015625)"/>
       <path id="DejaVuSans-75" d="M 544 1381 
L 544 3500 
L 1119 3500 
L 1119 1403 
Q 1119 906 1312 657 
Q 1506 409 1894 409 
Q 2359 409 2629 706 
Q 2900 1003 2900 1516 
L 2900 3500 
L 3475 3500 
L 3475 0 
L 2900 0 
L 2900 538 
Q 2691 219 2414 64 
Q 2138 -91 1772 -91 
Q 1169 -91 856 284 
Q 544 659 544 1381 
z
M 1991 3584 
L 1991 3584 
z
" transform="scale(0.015625)"/>
       <path id="DejaVuSans-6e" d="M 3513 2113 
L 3513 0 
L 2938 0 
L 2938 2094 
Q 2938 2591 2744 2837 
Q 2550 3084 2163 3084 
Q 1697 3084 1428 2787 
Q 1159 2491 1159 1978 
L 1159 0 
L 581 0 
L 581 3500 
L 1159 3500 
L 1159 2956 
Q 1366 3272 1645 3428 
Q 1925 3584 2291 3584 
Q 2894 3584 3203 3211 
Q 3513 2838 3513 2113 
z
" transform="scale(0.015625)"/>
      </defs>
      <use xlink:href="#DejaVuSans-4d"/>
      <use xlink:href="#DejaVuSans-69" x="86.279297"/>
      <use xlink:href="#DejaVuSans-73" x="114.0625"/>
      <use xlink:href="#DejaVuSans-73" x="166.162109"/>
      <use xlink:href="#DejaVuSans-20" x="218.261719"/>
      <use xlink:href="#DejaVuSans-43" x="250.048828"/>
      <use xlink:href="#DejaVuSans-6f" x="319.873047"/>
      <use xlink:href="#DejaVuSans-75" x="381.054688"/>
      <use xlink:href="#DejaVuSans-6e" x="444.433594"/>
      <use xlink:href="#DejaVuSans-74" x="507.8125"/>
     </g>
    </g>
    <g id="text_15">
     <!-- 1e6 -->
     <g transform="translate(36.17625 20.837812) scale(0.1 -0.1)">
      <use xlink:href="#DejaVuSans-31"/>
      <use xlink:href="#DejaVuSans-65" x="63.623047"/>
      <use xlink:href="#DejaVuSans-36" x="125.146484"/>
     </g>
    </g>
   </g>
   <g id="line2d_71">
    <path d="M -1 43.401812 
L 73.185795 43.401812 
L 73.185795 88.673879 
L 95.085815 88.673879 
L 95.085815 137.179664 
L 116.767895 137.179664 
L 116.767895 298.865614 
L 522.013627 298.865614 
L 522.013627 321.501647 
L 522.046904 321.501647 
L 522.046904 366.773713 
L 522.051062 366.773713 
L 522.051062 389.409746 
L 787.762692 389.409746 
L 787.762692 389.463642 
L 787.762752 389.463642 
L 787.762752 389.571432 
L 787.762812 389.571432 
L 787.762812 389.625328 
L 787.875385 389.625328 
L 787.875385 392.805151 
L 787.875504 392.805151 
L 787.875504 395.984975 
L 787.875564 395.984975 
L 787.875564 402.344622 
L 787.876837 402.344622 
L 787.876837 402.452413 
L 787.876927 402.452413 
L 787.876927 408.81206 
L 787.876989 408.81206 
L 787.876989 412.045779 
L 787.87705 412.045779 
L 787.87705 412.099675 
L 787.877109 412.099675 
L 787.877109 415.279498 
L 813.370944 415.279498 
L 813.370944 415.60287 
L 813.371063 415.60287 
L 813.371063 434.681812 
" clip-path="url(#paab04f8e4d)" style="fill: none; stroke-dasharray: 7.4,3.2; stroke-dashoffset: 0; stroke: #0000ff; stroke-opacity: 0.7; stroke-width: 2"/>
   </g>
   <g id="line2d_72">
    <path d="M 229.425988 298.865392 
L 475.292209 298.974276 
L 475.39709 298.97981 
L 478.464804 299.089595 
L 478.564528 299.099537 
L 480.429829 299.205893 
L 480.526487 299.219751 
L 481.958796 299.329673 
L 482.053134 299.347336 
L 483.174275 299.454037 
L 483.266807 299.475254 
L 484.184717 299.578103 
L 484.275775 299.602657 
L 485.089418 299.707362 
L 485.179177 299.735211 
L 485.892667 299.838174 
L 485.981287 299.869201 
L 486.598152 299.966723 
L 486.685784 300.000743 
L 487.295809 300.107471 
L 487.382474 300.144635 
L 487.899972 300.241109 
L 487.985809 300.281147 
L 488.498386 300.384946 
L 488.58341 300.42797 
L 489.006817 300.516644 
L 489.091157 300.562311 
L 489.51117 300.65635 
L 489.594837 300.704737 
L 490.01151 300.804288 
L 490.094514 300.855468 
L 490.507899 300.960674 
L 490.590251 301.014716 
L 491.000401 301.125714 
L 491.08211 301.182684 
L 491.407892 301.269998 
L 491.489074 301.329456 
L 491.812759 301.420534 
L 491.893421 301.482522 
L 492.215036 301.577423 
L 492.295184 301.641979 
L 492.614756 301.74076 
L 492.694396 301.807921 
L 493.01195 301.910635 
L 493.091089 301.980435 
L 493.406651 302.087132 
L 493.485295 302.159602 
L 493.79889 302.270327 
L 493.877045 302.345496 
L 494.110929 302.421753 
L 494.188697 302.499101 
L 494.421427 302.577545 
L 494.498812 302.657087 
L 494.730399 302.737732 
L 494.807405 302.819483 
L 495.03786 302.902343 
L 495.114491 302.986315 
L 495.343825 303.071402 
L 495.420084 303.157606 
L 495.648308 303.244931 
L 495.724199 303.333377 
L 495.951324 303.422949 
L 496.02685 303.513647 
L 496.252887 303.605473 
L 496.328052 303.698428 
L 496.55301 303.792516 
L 496.627817 303.887735 
L 496.851707 303.984089 
L 496.92616 304.081576 
L 497.148992 304.180199 
L 497.223094 304.279958 
L 497.444878 304.380853 
L 497.518633 304.482884 
L 497.739379 304.586051 
L 497.812789 304.690355 
L 498.032506 304.795794 
L 498.105575 304.902369 
L 498.324273 305.010078 
L 498.397004 305.118921 
L 498.614692 305.228897 
L 498.687088 305.340004 
L 498.83163 305.395982 
L 498.903776 305.508783 
L 499.047821 305.565607 
L 499.11972 305.6801 
L 499.263272 305.737769 
L 499.334926 305.853949 
L 499.477987 305.912459 
L 499.549397 306.030321 
L 499.691972 306.089671 
L 499.763138 306.20921 
L 499.90523 306.269397 
L 499.976156 306.390606 
L 500.117768 306.451628 
L 500.188455 306.574501 
L 500.32959 306.636353 
L 500.400039 306.760884 
L 500.5407 306.823563 
L 500.610913 306.949744 
L 500.751104 307.013245 
L 500.821083 307.141068 
L 500.960807 307.205389 
L 501.030552 307.334846 
L 501.169812 307.399981 
L 501.239326 307.531062 
L 501.378125 307.597007 
L 501.447409 307.729703 
L 501.585749 307.796453 
L 501.654806 307.930754 
L 501.792691 307.998304 
L 501.86152 308.1342 
L 501.998954 308.202544 
L 502.067558 308.340023 
L 502.204542 308.409157 
L 502.272922 308.548208 
L 502.40946 308.618125 
L 502.477618 308.758737 
L 502.613713 308.829431 
L 502.68165 308.97159 
L 502.817304 309.043055 
L 502.885021 309.186751 
L 503.020238 309.25898 
L 503.087737 309.404197 
L 503.222519 309.477184 
L 503.289802 309.62391 
L 503.424151 309.697648 
L 503.491219 309.845869 
L 503.625139 309.920351 
L 503.691993 310.070052 
L 503.825487 310.14527 
L 503.892128 310.296437 
L 504.025198 310.372384 
L 504.091628 310.525002 
L 504.224277 310.60167 
L 504.290497 310.755723 
L 504.422727 310.833105 
L 504.488739 310.988577 
L 504.620554 311.066665 
L 504.686358 311.22354 
L 504.817759 311.302325 
L 504.883357 311.460587 
L 505.014348 311.540061 
L 505.079742 311.699693 
L 505.210325 311.779848 
L 505.275514 311.940832 
L 505.405692 312.021659 
L 505.47068 312.183979 
L 505.600454 312.265469 
L 505.665241 312.429106 
L 505.794615 312.511251 
L 505.859202 312.676187 
L 505.988178 312.758977 
L 506.052567 312.925196 
L 506.181147 313.008622 
L 506.245339 313.176103 
L 506.373525 313.260156 
L 506.437521 313.428881 
L 506.565317 313.513551 
L 506.629118 313.683501 
L 506.756526 313.768779 
L 506.820133 313.939935 
L 506.947154 314.025812 
L 507.010569 314.198154 
L 507.137207 314.284619 
L 507.20043 314.458129 
L 507.326687 314.545172 
L 507.38972 314.719829 
L 507.515597 314.80744 
L 507.578442 314.983224 
L 507.703942 315.071394 
L 507.766598 315.248285 
L 507.891724 315.337004 
L 507.954194 315.514982 
L 508.078947 315.604238 
L 508.141231 315.783282 
L 508.265614 315.873067 
L 508.327714 316.053156 
L 508.451729 316.143458 
L 508.513645 316.324572 
L 508.637294 316.415381 
L 508.699028 316.597499 
L 508.822314 316.688805 
L 508.883866 316.871906 
L 509.00679 316.963698 
L 509.068162 317.147761 
L 509.190727 317.240029 
L 509.25192 317.425032 
L 509.374127 317.517764 
L 509.435142 317.703687 
L 509.556994 317.796874 
L 509.617832 317.983694 
L 509.739331 318.077325 
L 509.799992 318.265022 
L 509.92114 318.359085 
L 509.981626 318.547637 
L 510.102425 318.642123 
L 510.162737 318.831508 
L 510.283189 318.926405 
L 510.343328 319.116602 
L 510.463435 319.2119 
L 510.523402 319.402888 
L 510.643165 319.498575 
L 510.702961 319.690331 
L 510.822383 319.786398 
L 510.88201 319.978901 
L 511.001092 320.075336 
L 511.060549 320.268564 
L 511.179295 320.365356 
L 511.238583 320.559289 
L 511.356993 320.656427 
L 511.416115 320.851041 
L 511.534191 320.948515 
L 511.593146 321.143791 
L 511.710891 321.241589 
L 511.769681 321.437503 
L 511.887096 321.535616 
L 511.945721 321.732148 
L 512.062808 321.830564 
L 512.12127 322.027691 
L 512.238031 322.126399 
L 512.29633 322.324101 
L 512.412766 322.423091 
L 512.470904 322.621346 
L 512.587018 322.720607 
L 512.644994 322.919393 
L 512.760788 323.018915 
L 512.818604 323.218211 
L 512.934079 323.317983 
L 512.991736 323.517768 
L 513.106893 323.617779 
L 513.164393 323.818032 
L 513.279234 323.918271 
L 513.336576 324.118971 
L 513.451104 324.219428 
L 513.50829 324.420554 
L 513.622505 324.521219 
L 513.679535 324.722749 
L 513.793441 324.823611 
L 513.850316 325.025525 
L 513.963913 325.126575 
L 514.020634 325.328852 
L 514.133923 325.430078 
L 514.190492 325.632698 
L 514.303476 325.734091 
L 514.359892 325.937033 
L 514.472572 326.038581 
L 514.528837 326.241826 
L 514.641215 326.34352 
L 514.697329 326.547046 
L 514.809407 326.648877 
L 514.865371 326.852665 
L 514.97715 326.95462 
L 515.032965 327.15865 
L 515.144447 327.260722 
L 515.200114 327.464974 
L 515.3113 327.567152 
L 515.42229 327.87388 
L 515.533084 327.976184 
L 515.643683 328.283265 
L 515.754088 328.385678 
L 515.8643 328.693061 
L 515.974319 328.795566 
L 516.084145 329.103198 
L 516.19378 329.205779 
L 516.303224 329.513612 
L 516.412478 329.61625 
L 516.521543 329.924234 
L 516.630419 330.026914 
L 516.739106 330.334999 
L 516.847606 330.437705 
L 516.955919 330.745843 
L 517.064046 330.848559 
L 517.171987 331.156703 
L 517.279743 331.259413 
L 517.387315 331.567514 
L 517.494703 331.670202 
L 517.601908 331.978215 
L 517.70893 332.080866 
L 517.815771 332.388745 
L 517.92243 332.491344 
L 518.028909 332.799044 
L 518.135208 332.901575 
L 518.241327 333.209052 
L 518.347267 333.311501 
L 518.45303 333.61871 
L 518.558614 333.721063 
L 518.664022 334.027962 
L 518.769253 334.130204 
L 518.874309 334.43675 
L 518.979189 334.538868 
L 519.083895 334.84502 
L 519.188426 334.947 
L 519.292784 335.252716 
L 519.396969 335.354544 
L 519.500982 335.659785 
L 519.604823 335.761448 
L 519.708493 336.066174 
L 519.811992 336.167659 
L 519.915321 336.471832 
L 520.01848 336.573126 
L 520.121471 336.876708 
L 520.224293 336.977799 
L 520.326947 337.280752 
L 520.429434 337.381627 
L 520.531754 337.683916 
L 520.633908 337.784564 
L 520.735896 338.086151 
L 520.837719 338.18656 
L 520.939377 338.487412 
L 521.040871 338.58757 
L 521.142202 338.887653 
L 521.24337 338.987548 
L 521.344375 339.286828 
L 521.445218 339.38645 
L 521.5459 339.684894 
L 521.64642 339.784233 
L 521.746781 340.081809 
L 521.846981 340.180853 
L 521.947022 340.47753 
L 522.046904 340.57627 
L 522.146627 340.872018 
L 522.246193 340.970442 
L 522.345601 341.265232 
L 522.444852 341.363331 
L 522.543947 341.657133 
L 522.642886 341.754899 
L 522.74167 342.047684 
L 522.840298 342.145106 
L 522.938772 342.436848 
L 523.037092 342.533918 
L 523.135259 342.824589 
L 523.233273 342.921297 
L 523.331134 343.210872 
L 523.428842 343.307211 
L 523.5264 343.595663 
L 523.623806 343.691624 
L 523.721061 343.97893 
L 523.818167 344.074505 
L 523.915122 344.36064 
L 524.011929 344.455821 
L 524.108586 344.740763 
L 524.205095 344.835541 
L 524.301456 345.119267 
L 524.39767 345.213637 
L 524.493737 345.496124 
L 524.589657 345.590078 
L 524.685431 345.871306 
L 524.78106 345.964836 
L 524.876543 346.244785 
L 524.971881 346.337885 
L 525.067075 346.616534 
L 525.162126 346.709198 
L 525.257032 346.986528 
L 525.351796 347.07875 
L 525.446417 347.354743 
L 525.540896 347.446515 
L 525.635233 347.721153 
L 525.729429 347.812471 
L 525.823484 348.085737 
L 525.917398 348.176595 
L 526.011172 348.448472 
L 526.104807 348.538864 
L 526.198303 348.809336 
L 526.291659 348.899257 
L 526.384877 349.168309 
L 526.477958 349.257754 
L 526.5709 349.525371 
L 526.663706 349.614336 
L 526.756374 349.880504 
L 526.848907 349.968984 
L 526.941303 350.233689 
L 527.033564 350.321679 
L 527.125689 350.584909 
L 527.21768 350.672405 
L 527.309536 350.934146 
L 527.401259 351.021144 
L 527.492848 351.281387 
L 527.584303 351.367883 
L 527.675626 351.626614 
L 527.766816 351.712605 
L 527.857874 351.969814 
L 527.948801 352.055296 
L 528.039596 352.310974 
L 528.13026 352.395943 
L 528.220794 352.65008 
L 528.311198 352.734534 
L 528.401471 352.98712 
L 528.491616 353.071056 
L 528.581631 353.322082 
L 528.671518 353.405497 
L 528.761276 353.654957 
L 528.850906 353.737848 
L 528.940409 353.985732 
L 529.029785 354.068097 
L 529.119033 354.3144 
L 529.208155 354.396236 
L 529.297152 354.640951 
L 529.386022 354.722257 
L 529.474767 354.965376 
L 529.563386 355.04615 
L 529.651881 355.287669 
L 529.740252 355.367908 
L 529.828498 355.607822 
L 529.916621 355.687525 
L 530.004621 355.925828 
L 530.092497 356.004993 
L 530.180251 356.241682 
L 530.267883 356.320309 
L 530.355393 356.555378 
L 530.442781 356.633465 
L 530.530047 356.866913 
L 530.617193 356.944458 
L 530.704218 357.176281 
L 530.791123 357.253284 
L 530.877908 357.483478 
L 530.964574 357.559938 
L 531.05112 357.788503 
L 531.137547 357.864419 
L 531.223855 358.091351 
L 531.310045 358.166723 
L 531.396117 358.392022 
L 531.482072 358.466849 
L 531.567909 358.690513 
L 531.653629 358.764795 
L 531.739232 358.986823 
L 531.824719 359.06056 
L 531.91009 359.280952 
L 531.995345 359.354144 
L 532.080485 359.5729 
L 532.16551 359.645546 
L 532.25042 359.862666 
L 532.335215 359.934767 
L 532.419896 360.150252 
L 532.504463 360.221807 
L 532.588917 360.435658 
L 532.673257 360.506669 
L 532.757484 360.718886 
L 532.841599 360.789353 
L 532.925601 360.999938 
L 533.009491 361.069861 
L 533.09327 361.278816 
L 533.176937 361.348197 
L 533.260492 361.555524 
L 533.343937 361.624362 
L 533.427271 361.830063 
L 533.510495 361.89836 
L 533.593609 362.102438 
L 533.676614 362.170195 
L 533.759508 362.372653 
L 533.842294 362.43987 
L 533.924971 362.640711 
L 534.007539 362.70739 
L 534.089999 362.906618 
L 534.172351 362.972759 
L 534.254595 363.170377 
L 534.336732 363.235982 
L 534.418761 363.431995 
L 534.500684 363.497065 
L 534.5825 363.691476 
L 534.66421 363.756013 
L 534.745814 363.948827 
L 534.827312 364.012832 
L 534.908704 364.204053 
L 534.989991 364.267528 
L 535.071174 364.45716 
L 535.152251 364.520107 
L 535.233225 364.708157 
L 535.314094 364.770577 
L 535.394859 364.957048 
L 535.47552 365.018943 
L 535.556079 365.203843 
L 535.636534 365.265214 
L 535.716886 365.448547 
L 535.797136 365.509397 
L 535.877283 365.691169 
L 535.957329 365.7515 
L 536.037272 365.931716 
L 536.117114 365.991529 
L 536.196855 366.170196 
L 536.276495 366.229495 
L 536.356034 366.406619 
L 536.435473 366.465404 
L 536.514811 366.640992 
L 536.59405 366.699266 
L 536.673188 366.873324 
L 536.752228 366.93109 
L 536.831168 367.103625 
L 536.910009 367.160884 
L 536.988751 367.331903 
L 537.067395 367.388657 
L 537.14594 367.558167 
L 537.224388 367.614419 
L 537.302737 367.782427 
L 537.38099 367.83818 
L 537.459145 368.004693 
L 537.576195 368.115081 
L 537.654108 368.279736 
L 537.770797 368.38889 
L 537.848469 368.551698 
L 537.964798 368.659625 
L 538.042231 368.820599 
L 538.158202 368.927306 
L 538.235398 369.086458 
L 538.351013 369.191955 
L 538.427972 369.349298 
L 538.543235 369.453592 
L 538.619959 369.609137 
L 538.734871 369.712238 
L 538.811362 369.865998 
L 538.925924 369.967913 
L 539.002184 370.119902 
L 539.116399 370.220641 
L 539.192428 370.370871 
L 539.306299 370.470441 
L 539.382098 370.618926 
L 539.495626 370.717337 
L 539.571198 370.864089 
L 539.684386 370.96135 
L 539.759731 371.106384 
L 539.87258 371.202503 
L 539.9477 371.345832 
L 540.060213 371.440819 
L 540.135109 371.582456 
L 540.247287 371.67632 
L 540.321961 371.81628 
L 540.433807 371.90903 
L 540.50826 372.047325 
L 540.619775 372.138971 
L 540.694008 372.275616 
L 540.805194 372.366166 
L 540.916184 372.545961 
L 541.026978 372.635209 
L 541.137577 372.812413 
L 541.247982 372.900372 
L 541.358194 373.075013 
L 541.468213 373.161697 
L 541.578039 373.333801 
L 541.687674 373.419224 
L 541.797118 373.588819 
L 541.906372 373.672994 
L 542.015437 373.840106 
L 542.124313 373.923047 
L 542.233 374.087706 
L 542.3415 374.169426 
L 542.449813 374.331658 
L 542.55794 374.412172 
L 542.665881 374.572004 
L 542.773637 374.651325 
L 542.881209 374.808785 
L 542.988597 374.886927 
L 543.095802 375.042042 
L 543.202824 375.119019 
L 543.309665 375.271817 
L 543.416324 375.347642 
L 543.522803 375.49815 
L 543.629101 375.572837 
L 543.735221 375.721084 
L 543.876435 375.831288 
L 543.982138 375.97693 
L 544.1228 376.085194 
L 544.22809 376.228268 
L 544.368203 376.334621 
L 544.473083 376.475164 
L 544.612652 376.579633 
L 544.717125 376.717682 
L 544.856154 376.820294 
L 544.960224 376.955885 
L 545.098717 377.056668 
L 545.202387 377.189838 
L 545.340347 377.288819 
L 545.44362 377.419605 
L 545.581053 377.51681 
L 545.683931 377.645247 
L 545.820841 377.740704 
L 545.923328 377.866828 
L 546.059717 377.960564 
L 546.161816 378.08441 
L 546.29769 378.176451 
L 546.399403 378.298055 
L 546.534765 378.388427 
L 546.636096 378.507824 
L 546.77095 378.596554 
L 546.871901 378.713778 
L 547.006251 378.800891 
L 547.106825 378.915977 
L 547.240675 379.001499 
L 547.340875 379.114481 
L 547.474227 379.198438 
L 547.574056 379.309349 
L 547.740087 379.419093 
L 547.839495 379.527679 
L 548.004827 379.635119 
L 548.103818 379.741423 
L 548.268457 379.846602 
L 548.367034 379.950667 
L 548.530986 380.053628 
L 548.629153 380.155495 
L 548.792424 380.25628 
L 548.890184 380.355992 
L 549.052779 380.454642 
L 549.150135 380.552239 
L 549.312061 380.648795 
L 549.409016 380.744319 
L 549.570277 380.838821 
L 549.666836 380.932311 
L 549.827438 381.024799 
L 549.923603 381.116294 
L 550.083551 381.206807 
L 550.179325 381.296348 
L 550.370437 381.40692 
L 550.465775 381.494306 
L 550.656019 381.602215 
L 550.750926 381.687495 
L 550.940311 381.792802 
L 551.03479 381.876023 
L 551.223323 381.978784 
L 551.317378 382.059992 
L 551.505066 382.160265 
L 551.598701 382.239505 
L 551.785553 382.337347 
L 551.878771 382.414664 
L 552.064794 382.51013 
L 552.1576 382.585568 
L 552.342801 382.678711 
L 552.435197 382.752313 
L 552.650262 382.861213 
L 552.742208 382.932823 
L 552.956227 383.038775 
L 553.047727 383.108446 
L 553.26071 383.211525 
L 553.351768 383.279306 
L 553.563726 383.379587 
L 553.654347 383.445526 
L 553.865288 383.543082 
L 553.955476 383.607227 
L 554.195345 383.717792 
L 554.285061 383.780019 
L 554.523679 383.887274 
L 554.612927 383.947636 
L 554.850306 384.051677 
L 554.939093 384.110229 
L 555.175246 384.211148 
L 555.263575 384.267943 
L 555.498515 384.365831 
L 555.586391 384.420919 
L 555.849287 384.529277 
L 555.936675 384.582561 
L 556.198112 384.687367 
L 556.285017 384.738902 
L 556.545013 384.840269 
L 556.631441 384.890113 
L 556.918676 385.000254 
L 557.004591 385.048326 
L 557.290131 385.154551 
L 557.37554 385.200914 
L 557.659404 385.303359 
L 557.744313 385.348072 
L 558.054672 385.457695 
L 558.13905 385.500695 
L 558.447471 385.60612 
L 558.531324 385.647472 
L 558.837831 385.748856 
L 558.948919 385.798496 
L 559.28101 385.905295 
L 559.391318 385.952766 
L 559.721086 386.054896 
L 559.830626 386.100292 
L 560.185317 386.206687 
L 560.294051 386.249977 
L 560.673148 386.359739 
L 560.781043 386.400904 
L 561.157223 386.505281 
L 561.264291 386.544428 
L 561.66418 386.651171 
L 561.770389 386.688294 
L 562.19344 386.796599 
L 562.298759 386.831704 
L 562.744409 386.940803 
L 562.84881 386.973909 
L 563.316483 387.083076 
L 563.419939 387.114211 
L 563.909046 387.222769 
L 564.011533 387.251969 
L 564.521477 387.359295 
L 564.622971 387.386607 
L 565.17828 387.497258 
L 565.27872 387.522664 
L 565.853159 387.630351 
L 565.952528 387.653921 
L 566.570051 387.762614 
L 566.668294 387.784363 
L 567.327451 387.892724 
L 567.424519 387.912683 
L 568.14779 388.023165 
L 568.243601 388.041336 
L 569.028516 388.151882 
L 569.122995 388.168292 
L 569.966977 388.277061 
L 570.060057 388.291765 
L 571.006268 388.40242 
L 571.097823 388.415421 
L 572.141239 388.524789 
L 572.231158 388.536135 
L 573.410598 388.645453 
L 573.520732 388.657106 
L 574.892145 388.76711 
L 574.999716 388.776816 
L 576.633494 388.887193 
L 576.73813 388.894993 
L 578.754604 389.005357 
L 578.855772 389.011303 
L 581.508145 389.121843 
L 581.604981 389.125989 
L 585.524848 389.236718 
L 585.633849 389.239528 
L 593.633693 389.350611 
L 593.729516 389.351503 
L 743.33475 389.462606 
L 743.445492 389.463945 
L 748.826336 389.575033 
L 748.937288 389.578637 
L 751.676477 389.689708 
L 751.786392 389.695281 
L 753.696354 389.806384 
L 753.80655 389.813845 
L 755.293931 389.924881 
L 755.405024 389.934195 
L 756.634604 390.045287 
L 756.74455 390.056208 
L 757.798343 390.1673 
L 757.908619 390.179901 
L 758.833611 390.290883 
L 758.944393 390.305144 
L 759.772508 390.416203 
L 759.882785 390.431952 
L 760.633647 390.542968 
L 760.744666 390.560344 
L 761.4333 390.671393 
L 761.544024 390.690205 
L 762.180216 390.801124 
L 762.290726 390.821344 
L 762.883718 390.932315 
L 762.994081 390.953921 
L 763.550512 391.065022 
L 763.660781 391.087993 
L 764.184855 391.199069 
L 764.295078 391.223386 
L 764.790804 391.334421 
L 764.901019 391.360065 
L 765.371194 391.470927 
L 765.481437 391.497881 
L 765.92977 391.608786 
L 766.040068 391.637034 
L 766.469108 391.748053 
L 766.579487 391.777581 
L 766.990673 391.888582 
L 767.101153 391.919378 
L 767.495872 392.030275 
L 767.606473 392.062324 
L 767.987059 392.173368 
L 768.097797 392.206659 
L 768.46453 392.317563 
L 768.57542 392.352083 
L 768.930534 392.463193 
L 769.041588 392.498932 
L 769.385298 392.610018 
L 769.495552 392.646642 
L 769.828069 392.757474 
L 769.938518 392.795283 
L 770.261966 392.906315 
L 770.372618 392.945299 
L 770.68715 393.056356 
L 770.798012 393.096506 
L 771.103777 393.20742 
L 771.214856 393.248724 
L 771.512942 393.359687 
L 771.623301 393.401778 
L 771.913833 393.51264 
L 772.024427 393.555857 
L 772.308455 393.66685 
L 772.419289 393.711184 
L 772.696911 393.822189 
L 772.807987 393.867629 
L 773.079298 393.978531 
L 773.189701 394.024685 
L 773.455712 394.135753 
L 773.566371 394.182988 
L 773.826246 394.293735 
L 773.937164 394.342039 
L 774.191896 394.452757 
L 774.302171 394.501722 
L 774.552733 394.612718 
L 774.663275 394.662728 
L 774.908828 394.773523 
L 775.019639 394.824568 
L 775.261138 394.935489 
L 775.372219 394.987559 
L 775.609717 395.098536 
L 775.720184 395.151204 
L 775.953734 395.262164 
L 776.064477 395.315833 
L 776.29413 395.426712 
L 776.405149 395.481372 
L 776.630952 395.592103 
L 776.741379 395.647312 
L 776.964249 395.758266 
L 777.074956 395.814442 
L 777.294065 395.925127 
L 777.405054 395.98226 
L 777.621304 396.093061 
L 777.731717 396.150698 
L 777.945144 396.261563 
L 778.055841 396.320134 
L 778.266477 396.431017 
L 778.377456 396.490511 
L 778.585332 396.601366 
L 778.695751 396.66132 
L 778.9009 396.7721 
L 779.011604 396.832955 
L 779.214057 396.943616 
L 779.325045 397.005361 
L 779.525661 397.116325 
L 779.636101 397.178487 
L 779.834075 397.289253 
L 779.944801 397.352282 
L 780.140984 397.463277 
L 780.251992 397.527165 
L 780.445582 397.637887 
L 780.556055 397.70215 
L 780.747897 397.813032 
L 780.858654 397.878131 
L 781.048766 397.989144 
L 781.159804 398.055068 
L 781.347394 398.165702 
L 781.457907 398.231961 
L 781.643807 398.342662 
L 781.754602 398.409723 
L 781.938829 398.520462 
L 782.049905 398.588316 
L 782.232473 398.699066 
L 782.343032 398.767216 
L 782.52396 398.877948 
L 782.634799 398.946869 
L 782.814102 399.057556 
L 782.924431 399.126747 
L 783.102911 399.237856 
L 783.213519 399.307795 
L 783.3904 399.418811 
L 783.501283 399.489489 
L 783.67658 399.600387 
L 783.78696 399.671298 
L 783.960689 399.782052 
L 784.071345 399.85368 
L 784.244291 399.964767 
L 784.355219 400.037102 
L 784.526619 400.148002 
L 784.637051 400.220534 
L 784.806921 400.331223 
L 784.917625 400.40444 
L 785.08674 400.5154 
L 785.197713 400.589292 
L 785.36532 400.700001 
L 785.475802 400.774054 
L 785.64267 400.884995 
L 785.753419 400.959701 
L 785.918802 401.070351 
L 786.029816 401.145701 
L 786.194475 401.256546 
L 786.305003 401.332023 
L 786.468944 401.443046 
L 786.579734 401.519146 
L 786.74222 401.629821 
L 786.85327 401.706533 
L 787.015051 401.817352 
L 787.12562 401.894157 
L 787.286703 402.005103 
L 787.39753 402.082499 
L 787.557919 402.193555 
L 787.668999 402.271533 
L 787.827969 402.382173 
L 787.938574 402.42982 
L 788.72033 402.540847 
L 788.830811 402.557318 
L 789.553454 402.668363 
L 789.663896 402.686101 
L 790.337205 402.797159 
L 790.447678 402.816137 
L 791.07881 402.927139 
L 791.189369 402.947329 
L 791.785104 403.058429 
L 791.895795 403.079808 
L 792.459877 403.190818 
L 792.570738 403.213363 
L 793.107398 403.324347 
L 793.218461 403.348036 
L 793.731083 403.459034 
L 793.841712 403.483699 
L 794.332882 403.59469 
L 794.44377 403.620451 
L 794.915964 403.731491 
L 795.026479 403.758172 
L 795.481438 403.869215 
L 795.592252 403.896949 
L 796.031645 404.008001 
L 796.142132 404.036603 
L 796.567573 404.14771 
L 796.678389 404.177322 
L 797.090801 404.288398 
L 797.201327 404.318829 
L 797.601607 404.429812 
L 797.712483 404.461211 
L 798.102111 404.572239 
L 798.212727 404.604408 
L 798.592526 404.715471 
L 798.703508 404.748567 
L 799.074274 404.859673 
L 799.185017 404.893493 
L 799.546918 405.004479 
L 799.657437 405.038997 
L 800.011836 405.150087 
L 800.122739 405.18547 
L 800.469768 405.296529 
L 800.580462 405.332565 
L 800.920841 405.443656 
L 801.031924 405.480516 
L 801.365764 405.591521 
L 801.476651 405.628988 
L 801.804646 405.73999 
L 801.915344 405.77804 
L 802.238169 405.889132 
L 802.349264 405.927944 
L 802.666997 406.039031 
L 802.777912 406.078381 
L 803.090636 406.189368 
L 803.201377 406.229233 
L 803.509736 406.340236 
L 803.620309 406.380592 
L 803.92437 406.491526 
L 804.035342 406.532558 
L 804.335728 406.643551 
L 804.446536 406.685031 
L 804.743299 406.796007 
L 804.853947 406.837911 
L 805.147692 406.949008 
L 805.258735 406.991525 
L 805.548951 407.102464 
L 805.659837 407.145361 
L 805.94712 407.256285 
L 806.057852 407.29954 
L 806.342783 407.410596 
L 806.453362 407.454186 
L 806.735433 407.565101 
L 806.846401 407.609217 
L 807.126182 407.720142 
L 807.236998 407.764549 
L 807.51505 407.875641 
L 807.625714 407.920317 
L 807.901527 408.031305 
L 808.012571 408.076441 
L 808.286696 408.187483 
L 808.397587 408.232844 
L 808.670042 408.343885 
L 808.780782 408.389449 
L 809.051585 408.500437 
L 809.162693 408.546396 
L 809.432376 408.657491 
L 809.543329 408.703608 
L 809.811388 408.814545 
L 809.922188 408.8608 
L 810.18915 408.971742 
L 810.299796 409.018112 
L 810.566178 409.12922 
L 810.677176 409.175896 
L 810.942471 409.286909 
L 811.053311 409.333657 
L 811.31803 409.444735 
L 811.42871 409.491533 
L 811.692853 409.602627 
L 811.803871 409.649664 
L 812.067437 409.760724 
L 812.17829 409.807768 
L 812.441279 409.918744 
L 812.551967 409.965774 
L 812.814869 410.076826 
L 812.92588 410.124028 
L 813.188686 410.235104 
L 813.299525 410.282249 
L 813.376705 410.314729 
L 813.376705 410.314935 
" clip-path="url(#paab04f8e4d)" style="fill: none; stroke-dasharray: 7.4,3.2; stroke-dashoffset: 0; stroke: #ff0000; stroke-opacity: 0.7; stroke-width: 2"/>
   </g>
   <g id="line2d_73">
    <path d="M 490.918585 454.245812 
L 490.918585 23.837812 
" clip-path="url(#paab04f8e4d)" style="fill: none; stroke-dasharray: 2,3.3; stroke-dashoffset: 0; stroke: #800080; stroke-opacity: 0.6; stroke-width: 2"/>
   </g>
   <g id="patch_3">
    <path d="M 36.17625 454.245812 
L 36.17625 23.837812 
" style="fill: none; stroke: #000000; stroke-width: 0.8; stroke-linejoin: miter; stroke-linecap: square"/>
   </g>
   <g id="patch_4">
    <path d="M 850.38625 454.245812 
L 850.38625 23.837812 
" style="fill: none; stroke: #000000; stroke-width: 0.8; stroke-linejoin: miter; stroke-linecap: square"/>
   </g>
   <g id="patch_5">
    <path d="M 36.17625 454.245812 
L 850.38625 454.245812 
" style="fill: none; stroke: #000000; stroke-width: 0.8; stroke-linejoin: miter; stroke-linecap: square"/>
   </g>
   <g id="patch_6">
    <path d="M 36.17625 23.837812 
L 850.38625 23.837812 
" style="fill: none; stroke: #000000; stroke-width: 0.8; stroke-linejoin: miter; stroke-linecap: square"/>
   </g>
   <g id="text_16">
    <g id="patch_7">
     <path d="M 458.704053 78.86815 
L 490.918585 78.86815 
Q 494.218585 78.86815 494.218585 75.56815 
L 494.218585 64.922213 
Q 494.218585 61.622213 490.918585 61.622213 
L 458.704053 61.622213 
Q 455.404053 61.622213 455.404053 64.922213 
L 455.404053 75.56815 
Q 455.404053 78.86815 458.704053 78.86815 
z
" style="fill: #ffffff; opacity: 0.7; stroke: #800080; stroke-linejoin: miter"/>
    </g>
    <!-- 48KB -->
    <g style="fill: #800080" transform="translate(458.704053 73.280494) scale(0.11 -0.11)">
     <defs>
      <path id="DejaVuSans-Bold-34" d="M 2356 3675 
L 1038 1722 
L 2356 1722 
L 2356 3675 
z
M 2156 4666 
L 3494 4666 
L 3494 1722 
L 4159 1722 
L 4159 850 
L 3494 850 
L 3494 0 
L 2356 0 
L 2356 850 
L 288 850 
L 288 1881 
L 2156 4666 
z
" transform="scale(0.015625)"/>
      <path id="DejaVuSans-Bold-38" d="M 2228 2088 
Q 1891 2088 1709 1903 
Q 1528 1719 1528 1375 
Q 1528 1031 1709 848 
Q 1891 666 2228 666 
Q 2563 666 2741 848 
Q 2919 1031 2919 1375 
Q 2919 1722 2741 1905 
Q 2563 2088 2228 2088 
z
M 1350 2484 
Q 925 2613 709 2878 
Q 494 3144 494 3541 
Q 494 4131 934 4440 
Q 1375 4750 2228 4750 
Q 3075 4750 3515 4442 
Q 3956 4134 3956 3541 
Q 3956 3144 3739 2878 
Q 3522 2613 3097 2484 
Q 3572 2353 3814 2058 
Q 4056 1763 4056 1313 
Q 4056 619 3595 264 
Q 3134 -91 2228 -91 
Q 1319 -91 855 264 
Q 391 619 391 1313 
Q 391 1763 633 2058 
Q 875 2353 1350 2484 
z
M 1631 3419 
Q 1631 3141 1786 2991 
Q 1941 2841 2228 2841 
Q 2509 2841 2662 2991 
Q 2816 3141 2816 3419 
Q 2816 3697 2662 3845 
Q 2509 3994 2228 3994 
Q 1941 3994 1786 3844 
Q 1631 3694 1631 3419 
z
" transform="scale(0.015625)"/>
      <path id="DejaVuSans-Bold-4b" d="M 588 4666 
L 1791 4666 
L 1791 2963 
L 3525 4666 
L 4922 4666 
L 2675 2456 
L 5153 0 
L 3647 0 
L 1791 1838 
L 1791 0 
L 588 0 
L 588 4666 
z
" transform="scale(0.015625)"/>
      <path id="DejaVuSans-Bold-42" d="M 2456 2859 
Q 2741 2859 2887 2984 
Q 3034 3109 3034 3353 
Q 3034 3594 2887 3720 
Q 2741 3847 2456 3847 
L 1791 3847 
L 1791 2859 
L 2456 2859 
z
M 2497 819 
Q 2859 819 3042 972 
Q 3225 1125 3225 1434 
Q 3225 1738 3044 1889 
Q 2863 2041 2497 2041 
L 1791 2041 
L 1791 819 
L 2497 819 
z
M 3616 2497 
Q 4003 2384 4215 2081 
Q 4428 1778 4428 1338 
Q 4428 663 3972 331 
Q 3516 0 2584 0 
L 588 0 
L 588 4666 
L 2394 4666 
Q 3366 4666 3802 4372 
Q 4238 4078 4238 3431 
Q 4238 3091 4078 2852 
Q 3919 2613 3616 2497 
z
" transform="scale(0.015625)"/>
     </defs>
     <use xlink:href="#DejaVuSans-Bold-34"/>
     <use xlink:href="#DejaVuSans-Bold-38" x="69.580078"/>
     <use xlink:href="#DejaVuSans-Bold-4b" x="139.160156"/>
     <use xlink:href="#DejaVuSans-Bold-42" x="216.650391"/>
    </g>
   </g>
   <g id="text_17">
    <!-- Combined Deriche Miss Counts (deriche1-6) -->
    <g transform="translate(270.192031 17.837812) scale(0.14 -0.14)">
     <defs>
      <path id="DejaVuSans-Bold-43" d="M 4288 256 
Q 3956 84 3597 -3 
Q 3238 -91 2847 -91 
Q 1681 -91 1000 561 
Q 319 1213 319 2328 
Q 319 3447 1000 4098 
Q 1681 4750 2847 4750 
Q 3238 4750 3597 4662 
Q 3956 4575 4288 4403 
L 4288 3438 
Q 3953 3666 3628 3772 
Q 3303 3878 2944 3878 
Q 2300 3878 1931 3465 
Q 1563 3053 1563 2328 
Q 1563 1606 1931 1193 
Q 2300 781 2944 781 
Q 3303 781 3628 887 
Q 3953 994 4288 1222 
L 4288 256 
z
" transform="scale(0.015625)"/>
      <path id="DejaVuSans-Bold-6f" d="M 2203 2784 
Q 1831 2784 1636 2517 
Q 1441 2250 1441 1747 
Q 1441 1244 1636 976 
Q 1831 709 2203 709 
Q 2569 709 2762 976 
Q 2956 1244 2956 1747 
Q 2956 2250 2762 2517 
Q 2569 2784 2203 2784 
z
M 2203 3584 
Q 3106 3584 3614 3096 
Q 4122 2609 4122 1747 
Q 4122 884 3614 396 
Q 3106 -91 2203 -91 
Q 1297 -91 786 396 
Q 275 884 275 1747 
Q 275 2609 786 3096 
Q 1297 3584 2203 3584 
z
" transform="scale(0.015625)"/>
      <path id="DejaVuSans-Bold-6d" d="M 3781 2919 
Q 3994 3244 4286 3414 
Q 4578 3584 4928 3584 
Q 5531 3584 5847 3212 
Q 6163 2841 6163 2131 
L 6163 0 
L 5038 0 
L 5038 1825 
Q 5041 1866 5042 1909 
Q 5044 1953 5044 2034 
Q 5044 2406 4934 2573 
Q 4825 2741 4581 2741 
Q 4263 2741 4089 2478 
Q 3916 2216 3909 1719 
L 3909 0 
L 2784 0 
L 2784 1825 
Q 2784 2406 2684 2573 
Q 2584 2741 2328 2741 
Q 2006 2741 1831 2477 
Q 1656 2213 1656 1722 
L 1656 0 
L 531 0 
L 531 3500 
L 1656 3500 
L 1656 2988 
Q 1863 3284 2130 3434 
Q 2397 3584 2719 3584 
Q 3081 3584 3359 3409 
Q 3638 3234 3781 2919 
z
" transform="scale(0.015625)"/>
      <path id="DejaVuSans-Bold-62" d="M 2400 722 
Q 2759 722 2948 984 
Q 3138 1247 3138 1747 
Q 3138 2247 2948 2509 
Q 2759 2772 2400 2772 
Q 2041 2772 1848 2508 
Q 1656 2244 1656 1747 
Q 1656 1250 1848 986 
Q 2041 722 2400 722 
z
M 1656 2988 
Q 1888 3294 2169 3439 
Q 2450 3584 2816 3584 
Q 3463 3584 3878 3070 
Q 4294 2556 4294 1747 
Q 4294 938 3878 423 
Q 3463 -91 2816 -91 
Q 2450 -91 2169 54 
Q 1888 200 1656 506 
L 1656 0 
L 538 0 
L 538 4863 
L 1656 4863 
L 1656 2988 
z
" transform="scale(0.015625)"/>
      <path id="DejaVuSans-Bold-69" d="M 538 3500 
L 1656 3500 
L 1656 0 
L 538 0 
L 538 3500 
z
M 538 4863 
L 1656 4863 
L 1656 3950 
L 538 3950 
L 538 4863 
z
" transform="scale(0.015625)"/>
      <path id="DejaVuSans-Bold-6e" d="M 4056 2131 
L 4056 0 
L 2931 0 
L 2931 347 
L 2931 1631 
Q 2931 2084 2911 2256 
Q 2891 2428 2841 2509 
Q 2775 2619 2662 2680 
Q 2550 2741 2406 2741 
Q 2056 2741 1856 2470 
Q 1656 2200 1656 1722 
L 1656 0 
L 538 0 
L 538 3500 
L 1656 3500 
L 1656 2988 
Q 1909 3294 2193 3439 
Q 2478 3584 2822 3584 
Q 3428 3584 3742 3212 
Q 4056 2841 4056 2131 
z
" transform="scale(0.015625)"/>
      <path id="DejaVuSans-Bold-65" d="M 4031 1759 
L 4031 1441 
L 1416 1441 
Q 1456 1047 1700 850 
Q 1944 653 2381 653 
Q 2734 653 3104 758 
Q 3475 863 3866 1075 
L 3866 213 
Q 3469 63 3072 -14 
Q 2675 -91 2278 -91 
Q 1328 -91 801 392 
Q 275 875 275 1747 
Q 275 2603 792 3093 
Q 1309 3584 2216 3584 
Q 3041 3584 3536 3087 
Q 4031 2591 4031 1759 
z
M 2881 2131 
Q 2881 2450 2695 2645 
Q 2509 2841 2209 2841 
Q 1884 2841 1681 2658 
Q 1478 2475 1428 2131 
L 2881 2131 
z
" transform="scale(0.015625)"/>
      <path id="DejaVuSans-Bold-64" d="M 2919 2988 
L 2919 4863 
L 4044 4863 
L 4044 0 
L 2919 0 
L 2919 506 
Q 2688 197 2409 53 
Q 2131 -91 1766 -91 
Q 1119 -91 703 423 
Q 288 938 288 1747 
Q 288 2556 703 3070 
Q 1119 3584 1766 3584 
Q 2128 3584 2408 3439 
Q 2688 3294 2919 2988 
z
M 2181 722 
Q 2541 722 2730 984 
Q 2919 1247 2919 1747 
Q 2919 2247 2730 2509 
Q 2541 2772 2181 2772 
Q 1825 2772 1636 2509 
Q 1447 2247 1447 1747 
Q 1447 1247 1636 984 
Q 1825 722 2181 722 
z
" transform="scale(0.015625)"/>
      <path id="DejaVuSans-Bold-20" transform="scale(0.015625)"/>
      <path id="DejaVuSans-Bold-44" d="M 1791 3756 
L 1791 909 
L 2222 909 
Q 2959 909 3348 1275 
Q 3738 1641 3738 2338 
Q 3738 3031 3350 3393 
Q 2963 3756 2222 3756 
L 1791 3756 
z
M 588 4666 
L 1856 4666 
Q 2919 4666 3439 4514 
Q 3959 4363 4331 4000 
Q 4659 3684 4818 3271 
Q 4978 2859 4978 2338 
Q 4978 1809 4818 1395 
Q 4659 981 4331 666 
Q 3956 303 3431 151 
Q 2906 0 1856 0 
L 588 0 
L 588 4666 
z
" transform="scale(0.015625)"/>
      <path id="DejaVuSans-Bold-72" d="M 3138 2547 
Q 2991 2616 2845 2648 
Q 2700 2681 2553 2681 
Q 2122 2681 1889 2404 
Q 1656 2128 1656 1613 
L 1656 0 
L 538 0 
L 538 3500 
L 1656 3500 
L 1656 2925 
Q 1872 3269 2151 3426 
Q 2431 3584 2822 3584 
Q 2878 3584 2943 3579 
Q 3009 3575 3134 3559 
L 3138 2547 
z
" transform="scale(0.015625)"/>
      <path id="DejaVuSans-Bold-63" d="M 3366 3391 
L 3366 2478 
Q 3138 2634 2908 2709 
Q 2678 2784 2431 2784 
Q 1963 2784 1702 2511 
Q 1441 2238 1441 1747 
Q 1441 1256 1702 982 
Q 1963 709 2431 709 
Q 2694 709 2930 787 
Q 3166 866 3366 1019 
L 3366 103 
Q 3103 6 2833 -42 
Q 2563 -91 2291 -91 
Q 1344 -91 809 395 
Q 275 881 275 1747 
Q 275 2613 809 3098 
Q 1344 3584 2291 3584 
Q 2566 3584 2833 3536 
Q 3100 3488 3366 3391 
z
" transform="scale(0.015625)"/>
      <path id="DejaVuSans-Bold-68" d="M 4056 2131 
L 4056 0 
L 2931 0 
L 2931 347 
L 2931 1625 
Q 2931 2084 2911 2256 
Q 2891 2428 2841 2509 
Q 2775 2619 2662 2680 
Q 2550 2741 2406 2741 
Q 2056 2741 1856 2470 
Q 1656 2200 1656 1722 
L 1656 0 
L 538 0 
L 538 4863 
L 1656 4863 
L 1656 2988 
Q 1909 3294 2193 3439 
Q 2478 3584 2822 3584 
Q 3428 3584 3742 3212 
Q 4056 2841 4056 2131 
z
" transform="scale(0.015625)"/>
      <path id="DejaVuSans-Bold-4d" d="M 588 4666 
L 2119 4666 
L 3181 2169 
L 4250 4666 
L 5778 4666 
L 5778 0 
L 4641 0 
L 4641 3413 
L 3566 897 
L 2803 897 
L 1728 3413 
L 1728 0 
L 588 0 
L 588 4666 
z
" transform="scale(0.015625)"/>
      <path id="DejaVuSans-Bold-73" d="M 3272 3391 
L 3272 2541 
Q 2913 2691 2578 2766 
Q 2244 2841 1947 2841 
Q 1628 2841 1473 2761 
Q 1319 2681 1319 2516 
Q 1319 2381 1436 2309 
Q 1553 2238 1856 2203 
L 2053 2175 
Q 2913 2066 3209 1816 
Q 3506 1566 3506 1031 
Q 3506 472 3093 190 
Q 2681 -91 1863 -91 
Q 1516 -91 1145 -36 
Q 775 19 384 128 
L 384 978 
Q 719 816 1070 734 
Q 1422 653 1784 653 
Q 2113 653 2278 743 
Q 2444 834 2444 1013 
Q 2444 1163 2330 1236 
Q 2216 1309 1875 1350 
L 1678 1375 
Q 931 1469 631 1722 
Q 331 1975 331 2491 
Q 331 3047 712 3315 
Q 1094 3584 1881 3584 
Q 2191 3584 2531 3537 
Q 2872 3491 3272 3391 
z
" transform="scale(0.015625)"/>
      <path id="DejaVuSans-Bold-75" d="M 500 1363 
L 500 3500 
L 1625 3500 
L 1625 3150 
Q 1625 2866 1622 2436 
Q 1619 2006 1619 1863 
Q 1619 1441 1641 1255 
Q 1663 1069 1716 984 
Q 1784 875 1895 815 
Q 2006 756 2150 756 
Q 2500 756 2700 1025 
Q 2900 1294 2900 1772 
L 2900 3500 
L 4019 3500 
L 4019 0 
L 2900 0 
L 2900 506 
Q 2647 200 2364 54 
Q 2081 -91 1741 -91 
Q 1134 -91 817 281 
Q 500 653 500 1363 
z
" transform="scale(0.015625)"/>
      <path id="DejaVuSans-Bold-74" d="M 1759 4494 
L 1759 3500 
L 2913 3500 
L 2913 2700 
L 1759 2700 
L 1759 1216 
Q 1759 972 1856 886 
Q 1953 800 2241 800 
L 2816 800 
L 2816 0 
L 1856 0 
Q 1194 0 917 276 
Q 641 553 641 1216 
L 641 2700 
L 84 2700 
L 84 3500 
L 641 3500 
L 641 4494 
L 1759 4494 
z
" transform="scale(0.015625)"/>
      <path id="DejaVuSans-Bold-28" d="M 2413 -844 
L 1484 -844 
Q 1006 -72 778 623 
Q 550 1319 550 2003 
Q 550 2688 779 3389 
Q 1009 4091 1484 4856 
L 2413 4856 
Q 2013 4116 1813 3408 
Q 1613 2700 1613 2009 
Q 1613 1319 1811 609 
Q 2009 -100 2413 -844 
z
" transform="scale(0.015625)"/>
      <path id="DejaVuSans-Bold-31" d="M 750 831 
L 1813 831 
L 1813 3847 
L 722 3622 
L 722 4441 
L 1806 4666 
L 2950 4666 
L 2950 831 
L 4013 831 
L 4013 0 
L 750 0 
L 750 831 
z
" transform="scale(0.015625)"/>
      <path id="DejaVuSans-Bold-2d" d="M 347 2297 
L 2309 2297 
L 2309 1388 
L 347 1388 
L 347 2297 
z
" transform="scale(0.015625)"/>
      <path id="DejaVuSans-Bold-36" d="M 2316 2303 
Q 2000 2303 1842 2098 
Q 1684 1894 1684 1484 
Q 1684 1075 1842 870 
Q 2000 666 2316 666 
Q 2634 666 2792 870 
Q 2950 1075 2950 1484 
Q 2950 1894 2792 2098 
Q 2634 2303 2316 2303 
z
M 3803 4544 
L 3803 3681 
Q 3506 3822 3243 3889 
Q 2981 3956 2731 3956 
Q 2194 3956 1894 3657 
Q 1594 3359 1544 2772 
Q 1750 2925 1990 3001 
Q 2231 3078 2516 3078 
Q 3231 3078 3670 2659 
Q 4109 2241 4109 1563 
Q 4109 813 3618 361 
Q 3128 -91 2303 -91 
Q 1394 -91 895 523 
Q 397 1138 397 2266 
Q 397 3422 980 4083 
Q 1563 4744 2578 4744 
Q 2900 4744 3203 4694 
Q 3506 4644 3803 4544 
z
" transform="scale(0.015625)"/>
      <path id="DejaVuSans-Bold-29" d="M 513 -844 
Q 913 -100 1113 609 
Q 1313 1319 1313 2009 
Q 1313 2700 1113 3408 
Q 913 4116 513 4856 
L 1441 4856 
Q 1916 4091 2145 3389 
Q 2375 2688 2375 2003 
Q 2375 1319 2147 623 
Q 1919 -72 1441 -844 
L 513 -844 
z
" transform="scale(0.015625)"/>
     </defs>
     <use xlink:href="#DejaVuSans-Bold-43"/>
     <use xlink:href="#DejaVuSans-Bold-6f" x="73.388672"/>
     <use xlink:href="#DejaVuSans-Bold-6d" x="142.089844"/>
     <use xlink:href="#DejaVuSans-Bold-62" x="246.289062"/>
     <use xlink:href="#DejaVuSans-Bold-69" x="317.871094"/>
     <use xlink:href="#DejaVuSans-Bold-6e" x="352.148438"/>
     <use xlink:href="#DejaVuSans-Bold-65" x="423.339844"/>
     <use xlink:href="#DejaVuSans-Bold-64" x="491.162109"/>
     <use xlink:href="#DejaVuSans-Bold-20" x="562.744141"/>
     <use xlink:href="#DejaVuSans-Bold-44" x="597.558594"/>
     <use xlink:href="#DejaVuSans-Bold-65" x="680.566406"/>
     <use xlink:href="#DejaVuSans-Bold-72" x="748.388672"/>
     <use xlink:href="#DejaVuSans-Bold-69" x="797.705078"/>
     <use xlink:href="#DejaVuSans-Bold-63" x="831.982422"/>
     <use xlink:href="#DejaVuSans-Bold-68" x="891.259766"/>
     <use xlink:href="#DejaVuSans-Bold-65" x="962.451172"/>
     <use xlink:href="#DejaVuSans-Bold-20" x="1030.273438"/>
     <use xlink:href="#DejaVuSans-Bold-4d" x="1065.087891"/>
     <use xlink:href="#DejaVuSans-Bold-69" x="1164.599609"/>
     <use xlink:href="#DejaVuSans-Bold-73" x="1198.876953"/>
     <use xlink:href="#DejaVuSans-Bold-73" x="1258.398438"/>
     <use xlink:href="#DejaVuSans-Bold-20" x="1317.919922"/>
     <use xlink:href="#DejaVuSans-Bold-43" x="1352.734375"/>
     <use xlink:href="#DejaVuSans-Bold-6f" x="1426.123047"/>
     <use xlink:href="#DejaVuSans-Bold-75" x="1494.824219"/>
     <use xlink:href="#DejaVuSans-Bold-6e" x="1566.015625"/>
     <use xlink:href="#DejaVuSans-Bold-74" x="1637.207031"/>
     <use xlink:href="#DejaVuSans-Bold-73" x="1685.009766"/>
     <use xlink:href="#DejaVuSans-Bold-20" x="1744.53125"/>
     <use xlink:href="#DejaVuSans-Bold-28" x="1779.345703"/>
     <use xlink:href="#DejaVuSans-Bold-64" x="1825.048828"/>
     <use xlink:href="#DejaVuSans-Bold-65" x="1896.630859"/>
     <use xlink:href="#DejaVuSans-Bold-72" x="1964.453125"/>
     <use xlink:href="#DejaVuSans-Bold-69" x="2013.769531"/>
     <use xlink:href="#DejaVuSans-Bold-63" x="2048.046875"/>
     <use xlink:href="#DejaVuSans-Bold-68" x="2107.324219"/>
     <use xlink:href="#DejaVuSans-Bold-65" x="2178.515625"/>
     <use xlink:href="#DejaVuSans-Bold-31" x="2246.337891"/>
     <use xlink:href="#DejaVuSans-Bold-2d" x="2315.917969"/>
     <use xlink:href="#DejaVuSans-Bold-36" x="2357.421875"/>
     <use xlink:href="#DejaVuSans-Bold-29" x="2427.001953"/>
    </g>
   </g>
   <g id="PathCollection_1">
    <defs>
     <path id="m68dfb8a3f7" d="M -3.061862 6.123724 
L 0 3.061862 
L 3.061862 6.123724 
L 6.123724 3.061862 
L 3.061862 0 
L 6.123724 -3.061862 
L 3.061862 -6.123724 
L 0 -3.061862 
L -3.061862 -6.123724 
L -6.123724 -3.061862 
L -3.061862 0 
L -6.123724 3.061862 
z
" style="stroke: #000000; stroke-opacity: 0.8"/>
    </defs>
    <g clip-path="url(#paab04f8e4d)">
     <use xlink:href="#m68dfb8a3f7" x="229.425988" y="298.865614" style="fill-opacity: 0.8; stroke: #000000; stroke-opacity: 0.8"/>
     <use xlink:href="#m68dfb8a3f7" x="273.008087" y="298.865614" style="fill-opacity: 0.8; stroke: #000000; stroke-opacity: 0.8"/>
     <use xlink:href="#m68dfb8a3f7" x="316.590187" y="298.865614" style="fill-opacity: 0.8; stroke: #000000; stroke-opacity: 0.8"/>
     <use xlink:href="#m68dfb8a3f7" x="360.172286" y="298.865614" style="fill-opacity: 0.8; stroke: #000000; stroke-opacity: 0.8"/>
     <use xlink:href="#m68dfb8a3f7" x="403.754386" y="298.865764" style="fill-opacity: 0.8; stroke: #000000; stroke-opacity: 0.8"/>
     <use xlink:href="#m68dfb8a3f7" x="447.336485" y="298.865914" style="fill-opacity: 0.8; stroke: #000000; stroke-opacity: 0.8"/>
     <use xlink:href="#m68dfb8a3f7" x="490.918585" y="298.866213" style="fill-opacity: 0.8; stroke: #000000; stroke-opacity: 0.8"/>
     <use xlink:href="#m68dfb8a3f7" x="534.500684" y="389.410944" style="fill-opacity: 0.8; stroke: #000000; stroke-opacity: 0.8"/>
     <use xlink:href="#m68dfb8a3f7" x="578.082784" y="389.414911" style="fill-opacity: 0.8; stroke: #000000; stroke-opacity: 0.8"/>
     <use xlink:href="#m68dfb8a3f7" x="621.664883" y="389.43093" style="fill-opacity: 0.8; stroke: #000000; stroke-opacity: 0.8"/>
     <use xlink:href="#m68dfb8a3f7" x="665.246982" y="389.498374" style="fill-opacity: 0.8; stroke: #000000; stroke-opacity: 0.8"/>
    </g>
   </g>
   <g id="legend_1">
    <g id="patch_8">
     <path d="M 649.588125 97.221562 
L 842.68625 97.221562 
Q 844.88625 97.221562 844.88625 95.021562 
L 844.88625 31.537812 
Q 844.88625 29.337812 842.68625 29.337812 
L 649.588125 29.337812 
Q 647.388125 29.337812 647.388125 31.537812 
L 647.388125 95.021562 
Q 647.388125 97.221562 649.588125 97.221562 
z
" style="fill: #ffffff; opacity: 0.8; stroke: #cccccc; stroke-linejoin: miter"/>
    </g>
    <g id="PathCollection_2">
     <g>
      <use xlink:href="#m68dfb8a3f7" x="662.788125" y="39.208594" style="fill-opacity: 0.8; stroke: #000000; stroke-opacity: 0.8"/>
     </g>
    </g>
    <g id="text_18">
     <!-- 12WA Simulation (Original) -->
     <g transform="translate(682.588125 42.096094) scale(0.11 -0.11)">
      <defs>
       <path id="DejaVuSans-57" d="M 213 4666 
L 850 4666 
L 1831 722 
L 2809 4666 
L 3519 4666 
L 4500 722 
L 5478 4666 
L 6119 4666 
L 4947 0 
L 4153 0 
L 3169 4050 
L 2175 0 
L 1381 0 
L 213 4666 
z
" transform="scale(0.015625)"/>
       <path id="DejaVuSans-41" d="M 2188 4044 
L 1331 1722 
L 3047 1722 
L 2188 4044 
z
M 1831 4666 
L 2547 4666 
L 4325 0 
L 3669 0 
L 3244 1197 
L 1141 1197 
L 716 0 
L 50 0 
L 1831 4666 
z
" transform="scale(0.015625)"/>
       <path id="DejaVuSans-6d" d="M 3328 2828 
Q 3544 3216 3844 3400 
Q 4144 3584 4550 3584 
Q 5097 3584 5394 3201 
Q 5691 2819 5691 2113 
L 5691 0 
L 5113 0 
L 5113 2094 
Q 5113 2597 4934 2840 
Q 4756 3084 4391 3084 
Q 3944 3084 3684 2787 
Q 3425 2491 3425 1978 
L 3425 0 
L 2847 0 
L 2847 2094 
Q 2847 2600 2669 2842 
Q 2491 3084 2119 3084 
Q 1678 3084 1418 2786 
Q 1159 2488 1159 1978 
L 1159 0 
L 581 0 
L 581 3500 
L 1159 3500 
L 1159 2956 
Q 1356 3278 1631 3431 
Q 1906 3584 2284 3584 
Q 2666 3584 2933 3390 
Q 3200 3197 3328 2828 
z
" transform="scale(0.015625)"/>
       <path id="DejaVuSans-6c" d="M 603 4863 
L 1178 4863 
L 1178 0 
L 603 0 
L 603 4863 
z
" transform="scale(0.015625)"/>
       <path id="DejaVuSans-4f" d="M 2522 4238 
Q 1834 4238 1429 3725 
Q 1025 3213 1025 2328 
Q 1025 1447 1429 934 
Q 1834 422 2522 422 
Q 3209 422 3611 934 
Q 4013 1447 4013 2328 
Q 4013 3213 3611 3725 
Q 3209 4238 2522 4238 
z
M 2522 4750 
Q 3503 4750 4090 4092 
Q 4678 3434 4678 2328 
Q 4678 1225 4090 567 
Q 3503 -91 2522 -91 
Q 1538 -91 948 565 
Q 359 1222 359 2328 
Q 359 3434 948 4092 
Q 1538 4750 2522 4750 
z
" transform="scale(0.015625)"/>
       <path id="DejaVuSans-72" d="M 2631 2963 
Q 2534 3019 2420 3045 
Q 2306 3072 2169 3072 
Q 1681 3072 1420 2755 
Q 1159 2438 1159 1844 
L 1159 0 
L 581 0 
L 581 3500 
L 1159 3500 
L 1159 2956 
Q 1341 3275 1631 3429 
Q 1922 3584 2338 3584 
Q 2397 3584 2469 3576 
Q 2541 3569 2628 3553 
L 2631 2963 
z
" transform="scale(0.015625)"/>
       <path id="DejaVuSans-67" d="M 2906 1791 
Q 2906 2416 2648 2759 
Q 2391 3103 1925 3103 
Q 1463 3103 1205 2759 
Q 947 2416 947 1791 
Q 947 1169 1205 825 
Q 1463 481 1925 481 
Q 2391 481 2648 825 
Q 2906 1169 2906 1791 
z
M 3481 434 
Q 3481 -459 3084 -895 
Q 2688 -1331 1869 -1331 
Q 1566 -1331 1297 -1286 
Q 1028 -1241 775 -1147 
L 775 -588 
Q 1028 -725 1275 -790 
Q 1522 -856 1778 -856 
Q 2344 -856 2625 -561 
Q 2906 -266 2906 331 
L 2906 616 
Q 2728 306 2450 153 
Q 2172 0 1784 0 
Q 1141 0 747 490 
Q 353 981 353 1791 
Q 353 2603 747 3093 
Q 1141 3584 1784 3584 
Q 2172 3584 2450 3431 
Q 2728 3278 2906 2969 
L 2906 3500 
L 3481 3500 
L 3481 434 
z
" transform="scale(0.015625)"/>
      </defs>
      <use xlink:href="#DejaVuSans-31"/>
      <use xlink:href="#DejaVuSans-32" x="63.623047"/>
      <use xlink:href="#DejaVuSans-57" x="127.246094"/>
      <use xlink:href="#DejaVuSans-41" x="220.623047"/>
      <use xlink:href="#DejaVuSans-20" x="289.03125"/>
      <use xlink:href="#DejaVuSans-53" x="320.818359"/>
      <use xlink:href="#DejaVuSans-69" x="384.294922"/>
      <use xlink:href="#DejaVuSans-6d" x="412.078125"/>
      <use xlink:href="#DejaVuSans-75" x="509.490234"/>
      <use xlink:href="#DejaVuSans-6c" x="572.869141"/>
      <use xlink:href="#DejaVuSans-61" x="600.652344"/>
      <use xlink:href="#DejaVuSans-74" x="661.931641"/>
      <use xlink:href="#DejaVuSans-69" x="701.140625"/>
      <use xlink:href="#DejaVuSans-6f" x="728.923828"/>
      <use xlink:href="#DejaVuSans-6e" x="790.105469"/>
      <use xlink:href="#DejaVuSans-20" x="853.484375"/>
      <use xlink:href="#DejaVuSans-28" x="885.271484"/>
      <use xlink:href="#DejaVuSans-4f" x="924.285156"/>
      <use xlink:href="#DejaVuSans-72" x="1002.996094"/>
      <use xlink:href="#DejaVuSans-69" x="1044.109375"/>
      <use xlink:href="#DejaVuSans-67" x="1071.892578"/>
      <use xlink:href="#DejaVuSans-69" x="1135.369141"/>
      <use xlink:href="#DejaVuSans-6e" x="1163.152344"/>
      <use xlink:href="#DejaVuSans-61" x="1226.53125"/>
      <use xlink:href="#DejaVuSans-6c" x="1287.810547"/>
      <use xlink:href="#DejaVuSans-29" x="1315.59375"/>
     </g>
    </g>
    <g id="line2d_74">
     <path d="M 651.788125 54.392031 
L 662.788125 54.392031 
L 662.788125 54.392031 
L 673.788125 54.392031 
L 673.788125 54.392031 
" style="fill: none; stroke-dasharray: 7.4,3.2; stroke-dashoffset: 0; stroke: #0000ff; stroke-opacity: 0.7; stroke-width: 2"/>
    </g>
    <g id="text_19">
     <!-- FA Prediction (Combined) -->
     <g transform="translate(682.588125 58.242031) scale(0.11 -0.11)">
      <defs>
       <path id="DejaVuSans-46" d="M 628 4666 
L 3309 4666 
L 3309 4134 
L 1259 4134 
L 1259 2759 
L 3109 2759 
L 3109 2228 
L 1259 2228 
L 1259 0 
L 628 0 
L 628 4666 
z
" transform="scale(0.015625)"/>
       <path id="DejaVuSans-50" d="M 1259 4147 
L 1259 2394 
L 2053 2394 
Q 2494 2394 2734 2622 
Q 2975 2850 2975 3272 
Q 2975 3691 2734 3919 
Q 2494 4147 2053 4147 
L 1259 4147 
z
M 628 4666 
L 2053 4666 
Q 2838 4666 3239 4311 
Q 3641 3956 3641 3272 
Q 3641 2581 3239 2228 
Q 2838 1875 2053 1875 
L 1259 1875 
L 1259 0 
L 628 0 
L 628 4666 
z
" transform="scale(0.015625)"/>
       <path id="DejaVuSans-64" d="M 2906 2969 
L 2906 4863 
L 3481 4863 
L 3481 0 
L 2906 0 
L 2906 525 
Q 2725 213 2448 61 
Q 2172 -91 1784 -91 
Q 1150 -91 751 415 
Q 353 922 353 1747 
Q 353 2572 751 3078 
Q 1150 3584 1784 3584 
Q 2172 3584 2448 3432 
Q 2725 3281 2906 2969 
z
M 947 1747 
Q 947 1113 1208 752 
Q 1469 391 1925 391 
Q 2381 391 2643 752 
Q 2906 1113 2906 1747 
Q 2906 2381 2643 2742 
Q 2381 3103 1925 3103 
Q 1469 3103 1208 2742 
Q 947 2381 947 1747 
z
" transform="scale(0.015625)"/>
      </defs>
      <use xlink:href="#DejaVuSans-46"/>
      <use xlink:href="#DejaVuSans-41" x="48.394531"/>
      <use xlink:href="#DejaVuSans-20" x="116.802734"/>
      <use xlink:href="#DejaVuSans-50" x="148.589844"/>
      <use xlink:href="#DejaVuSans-72" x="207.142578"/>
      <use xlink:href="#DejaVuSans-65" x="246.005859"/>
      <use xlink:href="#DejaVuSans-64" x="307.529297"/>
      <use xlink:href="#DejaVuSans-69" x="371.005859"/>
      <use xlink:href="#DejaVuSans-63" x="398.789062"/>
      <use xlink:href="#DejaVuSans-74" x="453.769531"/>
      <use xlink:href="#DejaVuSans-69" x="492.978516"/>
      <use xlink:href="#DejaVuSans-6f" x="520.761719"/>
      <use xlink:href="#DejaVuSans-6e" x="581.943359"/>
      <use xlink:href="#DejaVuSans-20" x="645.322266"/>
      <use xlink:href="#DejaVuSans-28" x="677.109375"/>
      <use xlink:href="#DejaVuSans-43" x="716.123047"/>
      <use xlink:href="#DejaVuSans-6f" x="785.947266"/>
      <use xlink:href="#DejaVuSans-6d" x="847.128906"/>
      <use xlink:href="#DejaVuSans-62" x="944.541016"/>
      <use xlink:href="#DejaVuSans-69" x="1008.017578"/>
      <use xlink:href="#DejaVuSans-6e" x="1035.800781"/>
      <use xlink:href="#DejaVuSans-65" x="1099.179688"/>
      <use xlink:href="#DejaVuSans-64" x="1160.703125"/>
      <use xlink:href="#DejaVuSans-29" x="1224.179688"/>
     </g>
    </g>
    <g id="line2d_75">
     <path d="M 651.788125 70.537969 
L 662.788125 70.537969 
L 662.788125 70.537969 
L 673.788125 70.537969 
L 673.788125 70.537969 
" style="fill: none; stroke-dasharray: 7.4,3.2; stroke-dashoffset: 0; stroke: #ff0000; stroke-opacity: 0.7; stroke-width: 2"/>
    </g>
    <g id="text_20">
     <!-- 12WA Prediction (Combined) -->
     <g transform="translate(682.588125 74.387969) scale(0.11 -0.11)">
      <use xlink:href="#DejaVuSans-31"/>
      <use xlink:href="#DejaVuSans-32" x="63.623047"/>
      <use xlink:href="#DejaVuSans-57" x="127.246094"/>
      <use xlink:href="#DejaVuSans-41" x="220.623047"/>
      <use xlink:href="#DejaVuSans-20" x="289.03125"/>
      <use xlink:href="#DejaVuSans-50" x="320.818359"/>
      <use xlink:href="#DejaVuSans-72" x="379.371094"/>
      <use xlink:href="#DejaVuSans-65" x="418.234375"/>
      <use xlink:href="#DejaVuSans-64" x="479.757812"/>
      <use xlink:href="#DejaVuSans-69" x="543.234375"/>
      <use xlink:href="#DejaVuSans-63" x="571.017578"/>
      <use xlink:href="#DejaVuSans-74" x="625.998047"/>
      <use xlink:href="#DejaVuSans-69" x="665.207031"/>
      <use xlink:href="#DejaVuSans-6f" x="692.990234"/>
      <use xlink:href="#DejaVuSans-6e" x="754.171875"/>
      <use xlink:href="#DejaVuSans-20" x="817.550781"/>
      <use xlink:href="#DejaVuSans-28" x="849.337891"/>
      <use xlink:href="#DejaVuSans-43" x="888.351562"/>
      <use xlink:href="#DejaVuSans-6f" x="958.175781"/>
      <use xlink:href="#DejaVuSans-6d" x="1019.357422"/>
      <use xlink:href="#DejaVuSans-62" x="1116.769531"/>
      <use xlink:href="#DejaVuSans-69" x="1180.246094"/>
      <use xlink:href="#DejaVuSans-6e" x="1208.029297"/>
      <use xlink:href="#DejaVuSans-65" x="1271.408203"/>
      <use xlink:href="#DejaVuSans-64" x="1332.931641"/>
      <use xlink:href="#DejaVuSans-29" x="1396.408203"/>
     </g>
    </g>
    <g id="line2d_76">
     <path d="M 651.788125 86.683906 
L 662.788125 86.683906 
L 673.788125 86.683906 
" style="fill: none; stroke-dasharray: 2,3.3; stroke-dashoffset: 0; stroke: #800080; stroke-opacity: 0.6; stroke-width: 2"/>
    </g>
    <g id="text_21">
     <!-- 48KB Cache Size -->
     <g transform="translate(682.588125 90.533906) scale(0.11 -0.11)">
      <defs>
       <path id="DejaVuSans-38" d="M 2034 2216 
Q 1584 2216 1326 1975 
Q 1069 1734 1069 1313 
Q 1069 891 1326 650 
Q 1584 409 2034 409 
Q 2484 409 2743 651 
Q 3003 894 3003 1313 
Q 3003 1734 2745 1975 
Q 2488 2216 2034 2216 
z
M 1403 2484 
Q 997 2584 770 2862 
Q 544 3141 544 3541 
Q 544 4100 942 4425 
Q 1341 4750 2034 4750 
Q 2731 4750 3128 4425 
Q 3525 4100 3525 3541 
Q 3525 3141 3298 2862 
Q 3072 2584 2669 2484 
Q 3125 2378 3379 2068 
Q 3634 1759 3634 1313 
Q 3634 634 3220 271 
Q 2806 -91 2034 -91 
Q 1263 -91 848 271 
Q 434 634 434 1313 
Q 434 1759 690 2068 
Q 947 2378 1403 2484 
z
M 1172 3481 
Q 1172 3119 1398 2916 
Q 1625 2713 2034 2713 
Q 2441 2713 2670 2916 
Q 2900 3119 2900 3481 
Q 2900 3844 2670 4047 
Q 2441 4250 2034 4250 
Q 1625 4250 1398 4047 
Q 1172 3844 1172 3481 
z
" transform="scale(0.015625)"/>
       <path id="DejaVuSans-4b" d="M 628 4666 
L 1259 4666 
L 1259 2694 
L 3353 4666 
L 4166 4666 
L 1850 2491 
L 4331 0 
L 3500 0 
L 1259 2247 
L 1259 0 
L 628 0 
L 628 4666 
z
" transform="scale(0.015625)"/>
       <path id="DejaVuSans-42" d="M 1259 2228 
L 1259 519 
L 2272 519 
Q 2781 519 3026 730 
Q 3272 941 3272 1375 
Q 3272 1813 3026 2020 
Q 2781 2228 2272 2228 
L 1259 2228 
z
M 1259 4147 
L 1259 2741 
L 2194 2741 
Q 2656 2741 2882 2914 
Q 3109 3088 3109 3444 
Q 3109 3797 2882 3972 
Q 2656 4147 2194 4147 
L 1259 4147 
z
M 628 4666 
L 2241 4666 
Q 2963 4666 3353 4366 
Q 3744 4066 3744 3513 
Q 3744 3084 3544 2831 
Q 3344 2578 2956 2516 
Q 3422 2416 3680 2098 
Q 3938 1781 3938 1306 
Q 3938 681 3513 340 
Q 3088 0 2303 0 
L 628 0 
L 628 4666 
z
" transform="scale(0.015625)"/>
      </defs>
      <use xlink:href="#DejaVuSans-34"/>
      <use xlink:href="#DejaVuSans-38" x="63.623047"/>
      <use xlink:href="#DejaVuSans-4b" x="127.246094"/>
      <use xlink:href="#DejaVuSans-42" x="192.822266"/>
      <use xlink:href="#DejaVuSans-20" x="261.425781"/>
      <use xlink:href="#DejaVuSans-43" x="293.212891"/>
      <use xlink:href="#DejaVuSans-61" x="363.037109"/>
      <use xlink:href="#DejaVuSans-63" x="424.316406"/>
      <use xlink:href="#DejaVuSans-68" x="479.296875"/>
      <use xlink:href="#DejaVuSans-65" x="542.675781"/>
      <use xlink:href="#DejaVuSans-20" x="604.199219"/>
      <use xlink:href="#DejaVuSans-53" x="635.986328"/>
      <use xlink:href="#DejaVuSans-69" x="699.462891"/>
      <use xlink:href="#DejaVuSans-7a" x="727.246094"/>
      <use xlink:href="#DejaVuSans-65" x="779.736328"/>
     </g>
    </g>
   </g>
  </g>
 </g>
 <defs>
  <clipPath id="paab04f8e4d">
   <rect x="36.17625" y="23.837812" width="814.21" height="430.408"/>
  </clipPath>
 </defs>
</svg>
